<mxfile host="app.diagrams.net" agent="Mozilla/5.0 (Windows NT 10.0; Win64; x64) AppleWebKit/537.36 (KHTML, like Gecko) Chrome/133.0.0.0 Safari/537.36" version="26.0.16" pages="2">
  <diagram id="Ht1M8jgEwFfnCIfOTk4-" name="Page-1">
    <mxGraphModel dx="2840" dy="1535" grid="1" gridSize="10" guides="1" tooltips="1" connect="1" arrows="1" fold="1" page="1" pageScale="1" pageWidth="827" pageHeight="1169" math="0" shadow="0">
      <root>
        <mxCell id="0" />
        <mxCell id="1" parent="0" />
        <mxCell id="jZVaUwOg5UY3L9NAnvdq-71" value="AWS Cloud" style="points=[[0,0],[0.25,0],[0.5,0],[0.75,0],[1,0],[1,0.25],[1,0.5],[1,0.75],[1,1],[0.75,1],[0.5,1],[0.25,1],[0,1],[0,0.75],[0,0.5],[0,0.25]];outlineConnect=0;gradientColor=none;html=1;whiteSpace=wrap;fontSize=12;fontStyle=1;shape=mxgraph.aws4.group;grIcon=mxgraph.aws4.group_aws_cloud_alt;strokeColor=#232F3E;fillColor=none;verticalAlign=top;align=left;spacingLeft=30;fontColor=#232F3E;dashed=0;labelBackgroundColor=none;container=1;pointerEvents=0;collapsible=0;recursiveResize=0;" parent="1" vertex="1">
          <mxGeometry x="263" y="125" width="1097" height="757" as="geometry" />
        </mxCell>
        <mxCell id="jZVaUwOg5UY3L9NAnvdq-109" style="edgeStyle=elbowEdgeStyle;rounded=0;orthogonalLoop=1;jettySize=auto;html=1;endArrow=open;endFill=0;strokeColor=#545B64;strokeWidth=2;fontSize=14;fontStyle=1" parent="1" target="jZVaUwOg5UY3L9NAnvdq-72" edge="1">
          <mxGeometry relative="1" as="geometry">
            <mxPoint x="240" y="382" as="sourcePoint" />
            <Array as="points">
              <mxPoint x="339" y="322" />
            </Array>
          </mxGeometry>
        </mxCell>
        <mxCell id="jZVaUwOg5UY3L9NAnvdq-110" style="edgeStyle=elbowEdgeStyle;rounded=0;orthogonalLoop=1;jettySize=auto;html=1;endArrow=open;endFill=0;strokeColor=#545B64;strokeWidth=2;fontSize=14;fontStyle=1" parent="1" target="jZVaUwOg5UY3L9NAnvdq-74" edge="1">
          <mxGeometry relative="1" as="geometry">
            <mxPoint x="240" y="418" as="sourcePoint" />
          </mxGeometry>
        </mxCell>
        <mxCell id="jZVaUwOg5UY3L9NAnvdq-111" value="" style="edgeStyle=elbowEdgeStyle;rounded=0;orthogonalLoop=1;jettySize=auto;html=1;endArrow=open;endFill=0;strokeColor=#545B64;strokeWidth=2;fontSize=14;fontStyle=1" parent="1" source="jZVaUwOg5UY3L9NAnvdq-74" target="jZVaUwOg5UY3L9NAnvdq-75" edge="1">
          <mxGeometry relative="1" as="geometry" />
        </mxCell>
        <mxCell id="jZVaUwOg5UY3L9NAnvdq-112" value="" style="edgeStyle=elbowEdgeStyle;rounded=0;orthogonalLoop=1;jettySize=auto;html=1;endArrow=open;endFill=0;strokeColor=#545B64;strokeWidth=2;fontSize=14;fontStyle=1" parent="1" source="jZVaUwOg5UY3L9NAnvdq-75" target="jZVaUwOg5UY3L9NAnvdq-80" edge="1">
          <mxGeometry relative="1" as="geometry" />
        </mxCell>
        <mxCell id="jZVaUwOg5UY3L9NAnvdq-116" value="" style="edgeStyle=elbowEdgeStyle;rounded=0;orthogonalLoop=1;jettySize=auto;html=1;endArrow=open;endFill=0;strokeColor=#545B64;strokeWidth=2;fontSize=14;fontStyle=1" parent="1" source="jZVaUwOg5UY3L9NAnvdq-77" target="jZVaUwOg5UY3L9NAnvdq-76" edge="1">
          <mxGeometry relative="1" as="geometry" />
        </mxCell>
        <mxCell id="jZVaUwOg5UY3L9NAnvdq-117" value="" style="edgeStyle=elbowEdgeStyle;rounded=0;orthogonalLoop=1;jettySize=auto;html=1;endArrow=open;endFill=0;strokeColor=#545B64;strokeWidth=2;fontSize=14;fontStyle=1" parent="1" source="jZVaUwOg5UY3L9NAnvdq-77" target="jZVaUwOg5UY3L9NAnvdq-78" edge="1">
          <mxGeometry relative="1" as="geometry" />
        </mxCell>
        <mxCell id="jZVaUwOg5UY3L9NAnvdq-119" value="" style="edgeStyle=elbowEdgeStyle;rounded=0;orthogonalLoop=1;jettySize=auto;html=1;endArrow=open;endFill=0;strokeColor=#545B64;strokeWidth=2;fontSize=14;fontStyle=1" parent="1" source="jZVaUwOg5UY3L9NAnvdq-78" target="jZVaUwOg5UY3L9NAnvdq-91" edge="1">
          <mxGeometry relative="1" as="geometry">
            <Array as="points">
              <mxPoint x="1170" y="232" />
            </Array>
          </mxGeometry>
        </mxCell>
        <mxCell id="jZVaUwOg5UY3L9NAnvdq-123" value="" style="edgeStyle=orthogonalEdgeStyle;rounded=0;orthogonalLoop=1;jettySize=auto;html=1;endArrow=open;endFill=0;strokeColor=#545B64;strokeWidth=2;fontSize=14;fontStyle=1" parent="1" source="jZVaUwOg5UY3L9NAnvdq-78" target="jZVaUwOg5UY3L9NAnvdq-93" edge="1">
          <mxGeometry relative="1" as="geometry">
            <Array as="points">
              <mxPoint x="1170" y="272" />
              <mxPoint x="1170" y="295" />
            </Array>
          </mxGeometry>
        </mxCell>
        <mxCell id="jZVaUwOg5UY3L9NAnvdq-113" value="" style="edgeStyle=elbowEdgeStyle;rounded=0;orthogonalLoop=1;jettySize=auto;html=1;endArrow=open;endFill=0;strokeColor=#545B64;strokeWidth=2;fontSize=14;fontStyle=1" parent="1" source="jZVaUwOg5UY3L9NAnvdq-80" target="jZVaUwOg5UY3L9NAnvdq-81" edge="1">
          <mxGeometry relative="1" as="geometry" />
        </mxCell>
        <mxCell id="jZVaUwOg5UY3L9NAnvdq-114" value="" style="edgeStyle=elbowEdgeStyle;rounded=0;orthogonalLoop=1;jettySize=auto;html=1;endArrow=open;endFill=0;strokeColor=#545B64;strokeWidth=2;fontSize=14;fontStyle=1" parent="1" source="jZVaUwOg5UY3L9NAnvdq-81" target="jZVaUwOg5UY3L9NAnvdq-82" edge="1">
          <mxGeometry relative="1" as="geometry" />
        </mxCell>
        <mxCell id="jZVaUwOg5UY3L9NAnvdq-115" value="" style="edgeStyle=elbowEdgeStyle;rounded=0;orthogonalLoop=1;jettySize=auto;html=1;endArrow=open;endFill=0;strokeColor=#545B64;strokeWidth=2;fontSize=14;fontStyle=1" parent="1" source="jZVaUwOg5UY3L9NAnvdq-81" target="jZVaUwOg5UY3L9NAnvdq-77" edge="1">
          <mxGeometry relative="1" as="geometry" />
        </mxCell>
        <mxCell id="jZVaUwOg5UY3L9NAnvdq-128" value="" style="edgeStyle=elbowEdgeStyle;rounded=0;orthogonalLoop=1;jettySize=auto;html=1;endArrow=open;endFill=0;strokeColor=#545B64;strokeWidth=2;fontSize=14;fontStyle=1" parent="1" source="jZVaUwOg5UY3L9NAnvdq-81" target="jZVaUwOg5UY3L9NAnvdq-89" edge="1">
          <mxGeometry relative="1" as="geometry" />
        </mxCell>
        <mxCell id="jZVaUwOg5UY3L9NAnvdq-126" value="" style="edgeStyle=elbowEdgeStyle;rounded=0;orthogonalLoop=1;jettySize=auto;html=1;endArrow=open;endFill=0;strokeColor=#545B64;strokeWidth=2;fontSize=14;fontStyle=1" parent="1" source="jZVaUwOg5UY3L9NAnvdq-82" target="jZVaUwOg5UY3L9NAnvdq-97" edge="1">
          <mxGeometry relative="1" as="geometry">
            <Array as="points">
              <mxPoint x="1079" y="602" />
            </Array>
          </mxGeometry>
        </mxCell>
        <mxCell id="jZVaUwOg5UY3L9NAnvdq-138" value="" style="edgeStyle=elbowEdgeStyle;rounded=0;orthogonalLoop=1;jettySize=auto;html=1;endArrow=open;endFill=0;strokeColor=#545B64;strokeWidth=2;fontSize=14;elbow=vertical;fontStyle=1" parent="1" source="jZVaUwOg5UY3L9NAnvdq-84" edge="1">
          <mxGeometry relative="1" as="geometry">
            <mxPoint x="240" y="757" as="targetPoint" />
          </mxGeometry>
        </mxCell>
        <mxCell id="jZVaUwOg5UY3L9NAnvdq-132" value="" style="edgeStyle=elbowEdgeStyle;rounded=0;orthogonalLoop=1;jettySize=auto;html=1;endArrow=open;endFill=0;strokeColor=#545B64;strokeWidth=2;fontSize=14;fontStyle=1" parent="1" source="jZVaUwOg5UY3L9NAnvdq-85" target="jZVaUwOg5UY3L9NAnvdq-87" edge="1">
          <mxGeometry relative="1" as="geometry" />
        </mxCell>
        <mxCell id="jZVaUwOg5UY3L9NAnvdq-140" value="" style="edgeStyle=elbowEdgeStyle;rounded=0;orthogonalLoop=1;jettySize=auto;html=1;endArrow=open;endFill=0;strokeColor=#545B64;strokeWidth=2;fontSize=14;fontStyle=1" parent="1" edge="1">
          <mxGeometry relative="1" as="geometry">
            <mxPoint x="472" y="756" as="sourcePoint" />
            <mxPoint x="240" y="681" as="targetPoint" />
            <Array as="points">
              <mxPoint x="410" y="721" />
            </Array>
          </mxGeometry>
        </mxCell>
        <mxCell id="jZVaUwOg5UY3L9NAnvdq-160" value="" style="edgeStyle=elbowEdgeStyle;rounded=0;orthogonalLoop=1;jettySize=auto;html=1;endArrow=open;endFill=0;strokeColor=#545B64;strokeWidth=2;fontSize=14;fontStyle=1" parent="1" edge="1">
          <mxGeometry relative="1" as="geometry">
            <mxPoint x="472" y="756.5" as="sourcePoint" />
            <mxPoint x="378" y="756.5" as="targetPoint" />
          </mxGeometry>
        </mxCell>
        <mxCell id="jZVaUwOg5UY3L9NAnvdq-136" value="" style="edgeStyle=elbowEdgeStyle;rounded=0;orthogonalLoop=1;jettySize=auto;html=1;endArrow=open;endFill=0;strokeColor=#545B64;strokeWidth=2;fontSize=14;fontStyle=1" parent="1" source="jZVaUwOg5UY3L9NAnvdq-87" target="jZVaUwOg5UY3L9NAnvdq-75" edge="1">
          <mxGeometry relative="1" as="geometry" />
        </mxCell>
        <mxCell id="jZVaUwOg5UY3L9NAnvdq-142" value="" style="edgeStyle=elbowEdgeStyle;rounded=0;orthogonalLoop=1;jettySize=auto;html=1;endArrow=open;endFill=0;strokeColor=#545B64;strokeWidth=2;fontSize=14;fontStyle=1" parent="1" source="jZVaUwOg5UY3L9NAnvdq-88" target="jZVaUwOg5UY3L9NAnvdq-86" edge="1">
          <mxGeometry relative="1" as="geometry" />
        </mxCell>
        <mxCell id="jZVaUwOg5UY3L9NAnvdq-144" value="" style="edgeStyle=elbowEdgeStyle;rounded=0;orthogonalLoop=1;jettySize=auto;html=1;endArrow=open;endFill=0;strokeColor=#545B64;strokeWidth=2;fontSize=14;fontStyle=1" parent="1" source="jZVaUwOg5UY3L9NAnvdq-90" target="jZVaUwOg5UY3L9NAnvdq-88" edge="1">
          <mxGeometry relative="1" as="geometry">
            <mxPoint x="848" y="912" as="targetPoint" />
          </mxGeometry>
        </mxCell>
        <mxCell id="jZVaUwOg5UY3L9NAnvdq-121" value="" style="edgeStyle=elbowEdgeStyle;rounded=0;orthogonalLoop=1;jettySize=auto;html=1;endArrow=open;endFill=0;strokeColor=#545B64;strokeWidth=2;fontSize=14;fontStyle=1" parent="1" source="jZVaUwOg5UY3L9NAnvdq-91" target="jZVaUwOg5UY3L9NAnvdq-92" edge="1">
          <mxGeometry relative="1" as="geometry" />
        </mxCell>
        <mxCell id="jZVaUwOg5UY3L9NAnvdq-147" value="" style="edgeStyle=elbowEdgeStyle;rounded=0;orthogonalLoop=1;jettySize=auto;html=1;endArrow=open;endFill=0;strokeColor=#545B64;strokeWidth=2;fontSize=14;fontStyle=1" parent="1" source="jZVaUwOg5UY3L9NAnvdq-97" target="jZVaUwOg5UY3L9NAnvdq-98" edge="1">
          <mxGeometry relative="1" as="geometry" />
        </mxCell>
        <mxCell id="jZVaUwOg5UY3L9NAnvdq-155" value="" style="edgeStyle=elbowEdgeStyle;rounded=0;orthogonalLoop=1;jettySize=auto;html=1;endArrow=open;endFill=0;strokeColor=#545B64;strokeWidth=2;fontSize=14;fontStyle=1" parent="1" source="jZVaUwOg5UY3L9NAnvdq-97" target="jZVaUwOg5UY3L9NAnvdq-96" edge="1">
          <mxGeometry relative="1" as="geometry">
            <mxPoint x="1390" y="504" as="targetPoint" />
          </mxGeometry>
        </mxCell>
        <mxCell id="jZVaUwOg5UY3L9NAnvdq-146" value="" style="edgeStyle=elbowEdgeStyle;rounded=0;orthogonalLoop=1;jettySize=auto;html=1;endArrow=open;endFill=0;strokeColor=#545B64;strokeWidth=2;fontSize=14;fontStyle=1" parent="1" source="jZVaUwOg5UY3L9NAnvdq-98" target="jZVaUwOg5UY3L9NAnvdq-90" edge="1">
          <mxGeometry relative="1" as="geometry" />
        </mxCell>
        <mxCell id="jZVaUwOg5UY3L9NAnvdq-151" value="" style="edgeStyle=elbowEdgeStyle;rounded=0;orthogonalLoop=1;jettySize=auto;html=1;endArrow=open;endFill=0;strokeColor=#545B64;strokeWidth=2;fontSize=14;fontStyle=1" parent="1" source="jZVaUwOg5UY3L9NAnvdq-99" target="jZVaUwOg5UY3L9NAnvdq-97" edge="1">
          <mxGeometry relative="1" as="geometry" />
        </mxCell>
        <mxCell id="jZVaUwOg5UY3L9NAnvdq-149" value="" style="rounded=0;orthogonalLoop=1;jettySize=auto;html=1;endArrow=open;endFill=0;strokeColor=#545B64;strokeWidth=2;fontSize=14;fontStyle=1" parent="1" source="jZVaUwOg5UY3L9NAnvdq-100" target="jZVaUwOg5UY3L9NAnvdq-97" edge="1">
          <mxGeometry relative="1" as="geometry" />
        </mxCell>
        <mxCell id="jZVaUwOg5UY3L9NAnvdq-124" value="" style="edgeStyle=elbowEdgeStyle;rounded=0;orthogonalLoop=1;jettySize=auto;html=1;endArrow=open;endFill=0;strokeColor=#545B64;strokeWidth=2;fontSize=14;fontStyle=1" parent="1" source="jZVaUwOg5UY3L9NAnvdq-78" target="jZVaUwOg5UY3L9NAnvdq-94" edge="1">
          <mxGeometry relative="1" as="geometry">
            <mxPoint x="1108" y="281.5" as="sourcePoint" />
            <mxPoint x="1490.2117381489843" y="345" as="targetPoint" />
            <Array as="points">
              <mxPoint x="1170" y="332" />
            </Array>
          </mxGeometry>
        </mxCell>
        <mxCell id="jZVaUwOg5UY3L9NAnvdq-129" style="edgeStyle=elbowEdgeStyle;rounded=0;orthogonalLoop=1;jettySize=auto;html=1;endArrow=open;endFill=0;strokeColor=#545B64;strokeWidth=2;fontSize=14;exitX=1;exitY=0.5;exitDx=0;exitDy=0;elbow=vertical;fontStyle=1" parent="1" source="jZVaUwOg5UY3L9NAnvdq-62" target="jZVaUwOg5UY3L9NAnvdq-83" edge="1">
          <mxGeometry relative="1" as="geometry">
            <mxPoint x="220" y="462" as="sourcePoint" />
            <mxPoint x="482" y="428" as="targetPoint" />
          </mxGeometry>
        </mxCell>
        <mxCell id="jZVaUwOg5UY3L9NAnvdq-130" style="edgeStyle=elbowEdgeStyle;rounded=0;orthogonalLoop=1;jettySize=auto;html=1;endArrow=open;endFill=0;strokeColor=#545B64;strokeWidth=2;fontSize=14;fontStyle=1" parent="1" target="jZVaUwOg5UY3L9NAnvdq-85" edge="1">
          <mxGeometry relative="1" as="geometry">
            <mxPoint x="240" y="452" as="sourcePoint" />
            <mxPoint x="482" y="428" as="targetPoint" />
            <Array as="points">
              <mxPoint x="410" y="512" />
            </Array>
          </mxGeometry>
        </mxCell>
        <mxCell id="jZVaUwOg5UY3L9NAnvdq-158" style="edgeStyle=elbowEdgeStyle;rounded=0;orthogonalLoop=1;jettySize=auto;html=1;endArrow=open;endFill=0;strokeColor=#545B64;strokeWidth=2;fontSize=14;fontStyle=1" parent="1" target="jZVaUwOg5UY3L9NAnvdq-73" edge="1">
          <mxGeometry relative="1" as="geometry">
            <mxPoint x="240" y="382" as="sourcePoint" />
            <mxPoint x="349" y="290" as="targetPoint" />
            <Array as="points">
              <mxPoint x="430" y="312" />
            </Array>
          </mxGeometry>
        </mxCell>
        <mxCell id="-QjtrjUzRDEMRZ5MF8oH-46" value="" style="rounded=0;whiteSpace=wrap;html=1;fillColor=#EAEDED;fontSize=22;fontColor=#FFFFFF;strokeColor=none;labelBackgroundColor=none;fontStyle=1" parent="1" vertex="1">
          <mxGeometry x="1544.5" y="37" width="539" height="1080" as="geometry" />
        </mxCell>
        <mxCell id="-QjtrjUzRDEMRZ5MF8oH-36" value="1" style="rounded=1;whiteSpace=wrap;html=1;fillColor=#007CBD;strokeColor=none;fontColor=#FFFFFF;fontStyle=1;fontSize=22;labelBackgroundColor=none;" parent="1" vertex="1">
          <mxGeometry x="1563" y="49.5" width="40" height="38" as="geometry" />
        </mxCell>
        <mxCell id="-QjtrjUzRDEMRZ5MF8oH-37" value="2" style="rounded=1;whiteSpace=wrap;html=1;fillColor=#007CBD;strokeColor=none;fontColor=#FFFFFF;fontStyle=1;fontSize=22;labelBackgroundColor=none;" parent="1" vertex="1">
          <mxGeometry x="1561.5" y="171.5" width="40" height="38" as="geometry" />
        </mxCell>
        <mxCell id="-QjtrjUzRDEMRZ5MF8oH-38" value="3" style="rounded=1;whiteSpace=wrap;html=1;fillColor=#007CBD;strokeColor=none;fontColor=#FFFFFF;fontStyle=1;fontSize=22;labelBackgroundColor=none;" parent="1" vertex="1">
          <mxGeometry x="1561.5" y="291.5" width="40" height="38" as="geometry" />
        </mxCell>
        <mxCell id="-QjtrjUzRDEMRZ5MF8oH-39" value="4" style="rounded=1;whiteSpace=wrap;html=1;fillColor=#007CBD;strokeColor=none;fontColor=#FFFFFF;fontStyle=1;fontSize=22;labelBackgroundColor=none;" parent="1" vertex="1">
          <mxGeometry x="1561.5" y="405.5" width="40" height="38" as="geometry" />
        </mxCell>
        <mxCell id="-QjtrjUzRDEMRZ5MF8oH-40" value="5" style="rounded=1;whiteSpace=wrap;html=1;fillColor=#007CBD;strokeColor=none;fontColor=#FFFFFF;fontStyle=1;fontSize=22;labelBackgroundColor=none;" parent="1" vertex="1">
          <mxGeometry x="1563" y="522.5" width="40" height="38" as="geometry" />
        </mxCell>
        <mxCell id="-QjtrjUzRDEMRZ5MF8oH-41" value="6" style="rounded=1;whiteSpace=wrap;html=1;fillColor=#007CBD;strokeColor=none;fontColor=#FFFFFF;fontStyle=1;fontSize=22;labelBackgroundColor=none;" parent="1" vertex="1">
          <mxGeometry x="1564" y="637.5" width="40" height="38" as="geometry" />
        </mxCell>
        <mxCell id="-QjtrjUzRDEMRZ5MF8oH-42" value="7" style="rounded=1;whiteSpace=wrap;html=1;fillColor=#007CBD;strokeColor=none;fontColor=#FFFFFF;fontStyle=1;fontSize=22;labelBackgroundColor=none;" parent="1" vertex="1">
          <mxGeometry x="1563.5" y="753.5" width="40" height="38" as="geometry" />
        </mxCell>
        <mxCell id="-QjtrjUzRDEMRZ5MF8oH-43" value="8" style="rounded=1;whiteSpace=wrap;html=1;fillColor=#007CBD;strokeColor=none;fontColor=#FFFFFF;fontStyle=1;fontSize=22;labelBackgroundColor=none;" parent="1" vertex="1">
          <mxGeometry x="1564" y="871.5" width="40" height="38" as="geometry" />
        </mxCell>
        <mxCell id="-QjtrjUzRDEMRZ5MF8oH-44" value="9" style="rounded=1;whiteSpace=wrap;html=1;fillColor=#007CBD;strokeColor=none;fontColor=#FFFFFF;fontStyle=1;fontSize=22;labelBackgroundColor=none;" parent="1" vertex="1">
          <mxGeometry x="1562" y="991.5" width="40" height="38" as="geometry" />
        </mxCell>
        <mxCell id="-QjtrjUzRDEMRZ5MF8oH-47" value="Title text&lt;br&gt;" style="text;html=1;resizable=0;points=[];autosize=1;align=left;verticalAlign=top;spacingTop=-4;fontSize=30;fontStyle=1;labelBackgroundColor=none;" parent="1" vertex="1">
          <mxGeometry x="36.5" y="26.5" width="140" height="40" as="geometry" />
        </mxCell>
        <mxCell id="-QjtrjUzRDEMRZ5MF8oH-48" value="Sub-title text&lt;br style=&quot;font-size: 16px&quot;&gt;" style="text;html=1;resizable=0;points=[];autosize=1;align=left;verticalAlign=top;spacingTop=-4;fontSize=16;labelBackgroundColor=none;fontStyle=1" parent="1" vertex="1">
          <mxGeometry x="36.5" y="76.5" width="110" height="30" as="geometry" />
        </mxCell>
        <mxCell id="SCVMTBWpLvtzJIhz15lM-1" value="" style="line;strokeWidth=2;html=1;fontSize=14;labelBackgroundColor=none;fontStyle=1" parent="1" vertex="1">
          <mxGeometry x="32.5" y="101.5" width="1060" height="10" as="geometry" />
        </mxCell>
        <mxCell id="SCVMTBWpLvtzJIhz15lM-6" value="&lt;span&gt;Lorem ipsum dolor sit amet, consectetur adipiscing elit, sed do eiusmod tempor incididunt ut labore et dolore magna aliqua. Ut enim ad minim veniam, quis nostrud exercitation ullamco laboris nisi ut aliquip ex ea commodo consequat. Duis aute irure dolor in reprehenderit in voluptate velit esse cillum dolore eu fugiat nulla pariatur. Excepteur sint occaecat cupidatat non proident, sunt in culpa qui officia deserunt mollit anim id est laborum.&lt;/span&gt;&lt;br&gt;" style="text;html=1;align=left;verticalAlign=top;spacingTop=-4;fontSize=14;labelBackgroundColor=none;whiteSpace=wrap;fontStyle=1" parent="1" vertex="1">
          <mxGeometry x="1614.5" y="49" width="449" height="118" as="geometry" />
        </mxCell>
        <mxCell id="SCVMTBWpLvtzJIhz15lM-7" value="&lt;span&gt;Lorem ipsum dolor sit amet, consectetur adipiscing elit, sed do eiusmod tempor incididunt ut labore et dolore magna aliqua. Ut enim ad minim veniam, quis nostrud exercitation ullamco laboris nisi ut aliquip ex ea commodo consequat. Duis aute irure dolor in reprehenderit in voluptate velit esse cillum dolore eu fugiat nulla pariatur. Excepteur sint occaecat cupidatat non proident, sunt in culpa qui officia deserunt mollit anim id est laborum.&lt;/span&gt;&lt;br&gt;" style="text;html=1;align=left;verticalAlign=top;spacingTop=-4;fontSize=14;labelBackgroundColor=none;whiteSpace=wrap;fontStyle=1" parent="1" vertex="1">
          <mxGeometry x="1613.5" y="172" width="450" height="115" as="geometry" />
        </mxCell>
        <mxCell id="SCVMTBWpLvtzJIhz15lM-9" value="&lt;span&gt;Lorem ipsum dolor sit amet, consectetur adipiscing elit, sed do eiusmod tempor incididunt ut labore et dolore magna aliqua. Ut enim ad minim veniam, quis nostrud exercitation ullamco laboris nisi ut aliquip ex ea commodo consequat. Duis aute irure dolor in reprehenderit in voluptate velit esse cillum dolore eu fugiat nulla pariatur. Excepteur sint occaecat cupidatat non proident, sunt in culpa qui officia deserunt mollit anim id est laborum.&lt;/span&gt;&lt;br&gt;" style="text;html=1;align=left;verticalAlign=top;spacingTop=-4;fontSize=14;labelBackgroundColor=none;whiteSpace=wrap;fontStyle=1" parent="1" vertex="1">
          <mxGeometry x="1613.5" y="290" width="450" height="117" as="geometry" />
        </mxCell>
        <mxCell id="SCVMTBWpLvtzJIhz15lM-10" value="&lt;span&gt;Lorem ipsum dolor sit amet, consectetur adipiscing elit, sed do eiusmod tempor incididunt ut labore et dolore magna aliqua. Ut enim ad minim veniam, quis nostrud exercitation ullamco laboris nisi ut aliquip ex ea commodo consequat. Duis aute irure dolor in reprehenderit in voluptate velit esse cillum dolore eu fugiat nulla pariatur. Excepteur sint occaecat cupidatat non proident, sunt in culpa qui officia deserunt mollit anim id est laborum.&lt;/span&gt;&lt;br&gt;" style="text;html=1;align=left;verticalAlign=top;spacingTop=-4;fontSize=14;labelBackgroundColor=none;whiteSpace=wrap;fontStyle=1" parent="1" vertex="1">
          <mxGeometry x="1613.5" y="406" width="450" height="121" as="geometry" />
        </mxCell>
        <mxCell id="SCVMTBWpLvtzJIhz15lM-11" value="&lt;span&gt;Lorem ipsum dolor sit amet, consectetur adipiscing elit, sed do eiusmod tempor incididunt ut labore et dolore magna aliqua. Ut enim ad minim veniam, quis nostrud exercitation ullamco laboris nisi ut aliquip ex ea commodo consequat. Duis aute irure dolor in reprehenderit in voluptate velit esse cillum dolore eu fugiat nulla pariatur. Excepteur sint occaecat cupidatat non proident, sunt in culpa qui officia deserunt mollit anim id est laborum.&lt;/span&gt;&lt;br&gt;" style="text;html=1;align=left;verticalAlign=top;spacingTop=-4;fontSize=14;labelBackgroundColor=none;whiteSpace=wrap;fontStyle=1" parent="1" vertex="1">
          <mxGeometry x="1614.5" y="523" width="449" height="114" as="geometry" />
        </mxCell>
        <mxCell id="SCVMTBWpLvtzJIhz15lM-12" value="&lt;span&gt;Lorem ipsum dolor sit amet, consectetur adipiscing elit, sed do eiusmod tempor incididunt ut labore et dolore magna aliqua. Ut enim ad minim veniam, quis nostrud exercitation ullamco laboris nisi ut aliquip ex ea commodo consequat. Duis aute irure dolor in reprehenderit in voluptate velit esse cillum dolore eu fugiat nulla pariatur. Excepteur sint occaecat cupidatat non proident, sunt in culpa qui officia deserunt mollit anim id est laborum.&lt;/span&gt;&lt;br&gt;" style="text;html=1;align=left;verticalAlign=top;spacingTop=-4;fontSize=14;labelBackgroundColor=none;whiteSpace=wrap;fontStyle=1" parent="1" vertex="1">
          <mxGeometry x="1614.5" y="639" width="450" height="118" as="geometry" />
        </mxCell>
        <mxCell id="SCVMTBWpLvtzJIhz15lM-13" value="&lt;span&gt;Lorem ipsum dolor sit amet, consectetur adipiscing elit, sed do eiusmod tempor incididunt ut labore et dolore magna aliqua. Ut enim ad minim veniam, quis nostrud exercitation ullamco laboris nisi ut aliquip ex ea commodo consequat. Duis aute irure dolor in reprehenderit in voluptate velit esse cillum dolore eu fugiat nulla pariatur. Excepteur sint occaecat cupidatat non proident, sunt in culpa qui officia deserunt mollit anim id est laborum.&lt;/span&gt;&lt;br&gt;" style="text;html=1;align=left;verticalAlign=top;spacingTop=-4;fontSize=14;labelBackgroundColor=none;whiteSpace=wrap;fontStyle=1" parent="1" vertex="1">
          <mxGeometry x="1614.5" y="754" width="449" height="113" as="geometry" />
        </mxCell>
        <mxCell id="SCVMTBWpLvtzJIhz15lM-14" value="&lt;span&gt;Lorem ipsum dolor sit amet, consectetur adipiscing elit, sed do eiusmod tempor incididunt ut labore et dolore magna aliqua. Ut enim ad minim veniam, quis nostrud exercitation ullamco laboris nisi ut aliquip ex ea commodo consequat. Duis aute irure dolor in reprehenderit in voluptate velit esse cillum dolore eu fugiat nulla pariatur. Excepteur sint occaecat cupidatat non proident, sunt in culpa qui officia deserunt mollit anim id est laborum.&lt;/span&gt;&lt;br&gt;" style="text;html=1;align=left;verticalAlign=top;spacingTop=-4;fontSize=14;labelBackgroundColor=none;whiteSpace=wrap;fontStyle=1" parent="1" vertex="1">
          <mxGeometry x="1614.5" y="873" width="449" height="124" as="geometry" />
        </mxCell>
        <mxCell id="SCVMTBWpLvtzJIhz15lM-15" value="&lt;span&gt;Lorem ipsum dolor sit amet, consectetur adipiscing elit, sed do eiusmod tempor incididunt ut labore et dolore magna aliqua. Ut enim ad minim veniam, quis nostrud exercitation ullamco laboris nisi ut aliquip ex ea commodo consequat. Duis aute irure dolor in reprehenderit in voluptate velit esse cillum dolore eu fugiat nulla pariatur. Excepteur sint occaecat cupidatat non proident, sunt in culpa qui officia deserunt mollit anim id est laborum.&lt;/span&gt;&lt;br&gt;" style="text;html=1;align=left;verticalAlign=top;spacingTop=-4;fontSize=14;labelBackgroundColor=none;whiteSpace=wrap;fontStyle=1" parent="1" vertex="1">
          <mxGeometry x="1614.5" y="992" width="449" height="115" as="geometry" />
        </mxCell>
        <mxCell id="jZVaUwOg5UY3L9NAnvdq-59" value="Actors" style="swimlane;fontSize=14;align=center;swimlaneFillColor=#f4f4f4;fillColor=#f4f4f4;startSize=33;container=1;pointerEvents=0;collapsible=0;recursiveResize=0;fontStyle=1" parent="1" vertex="1">
          <mxGeometry x="30" y="125" width="210" height="177" as="geometry" />
        </mxCell>
        <mxCell id="jZVaUwOg5UY3L9NAnvdq-60" value="User" style="outlineConnect=0;fontColor=#232F3E;gradientColor=none;fillColor=#232F3E;strokeColor=none;dashed=0;verticalLabelPosition=bottom;verticalAlign=top;align=center;html=1;fontSize=12;fontStyle=1;aspect=fixed;pointerEvents=1;shape=mxgraph.aws4.user;labelBackgroundColor=none;" parent="jZVaUwOg5UY3L9NAnvdq-59" vertex="1">
          <mxGeometry x="16" y="54" width="78" height="78" as="geometry" />
        </mxCell>
        <mxCell id="jZVaUwOg5UY3L9NAnvdq-61" value="Payers" style="outlineConnect=0;fontColor=#232F3E;gradientColor=none;fillColor=#232F3E;strokeColor=none;dashed=0;verticalLabelPosition=bottom;verticalAlign=top;align=center;html=1;fontSize=12;fontStyle=1;aspect=fixed;pointerEvents=1;shape=mxgraph.aws4.corporate_data_center;labelBackgroundColor=none;" parent="jZVaUwOg5UY3L9NAnvdq-59" vertex="1">
          <mxGeometry x="130" y="54" width="53" height="78" as="geometry" />
        </mxCell>
        <mxCell id="jZVaUwOg5UY3L9NAnvdq-62" value="Channels" style="swimlane;fontSize=14;align=center;swimlaneFillColor=#f4f4f4;fillColor=#f4f4f4;startSize=33;container=1;pointerEvents=0;collapsible=0;recursiveResize=0;fontStyle=1" parent="1" vertex="1">
          <mxGeometry x="30" y="302" width="210" height="580" as="geometry" />
        </mxCell>
        <mxCell id="jZVaUwOg5UY3L9NAnvdq-65" value="Mobile / Web" style="outlineConnect=0;fontColor=#232F3E;gradientColor=none;strokeColor=none;fillColor=#277116;dashed=0;verticalLabelPosition=bottom;verticalAlign=top;align=center;html=1;fontSize=12;fontStyle=1;shape=mxgraph.aws4.mobile_client;labelBackgroundColor=none;" parent="jZVaUwOg5UY3L9NAnvdq-62" vertex="1">
          <mxGeometry x="67.5" y="57.5" width="53" height="100" as="geometry" />
        </mxCell>
        <mxCell id="jZVaUwOg5UY3L9NAnvdq-69" value="Wearables" style="outlineConnect=0;fontColor=#232F3E;gradientColor=none;fillColor=#277116;strokeColor=none;dashed=0;verticalLabelPosition=bottom;verticalAlign=top;align=center;html=1;fontSize=12;fontStyle=1;aspect=fixed;pointerEvents=1;shape=mxgraph.aws4.medical_emergency;labelBackgroundColor=none;" parent="jZVaUwOg5UY3L9NAnvdq-62" vertex="1">
          <mxGeometry x="63" y="310" width="78" height="78" as="geometry" />
        </mxCell>
        <mxCell id="jZVaUwOg5UY3L9NAnvdq-70" value="Echo" style="outlineConnect=0;fontColor=#232F3E;gradientColor=none;fillColor=#277116;strokeColor=none;dashed=0;verticalLabelPosition=bottom;verticalAlign=top;align=center;html=1;fontSize=12;fontStyle=1;aspect=fixed;pointerEvents=1;shape=mxgraph.aws4.echo;labelBackgroundColor=none;" parent="jZVaUwOg5UY3L9NAnvdq-62" vertex="1">
          <mxGeometry x="84" y="427" width="41" height="78" as="geometry" />
        </mxCell>
        <mxCell id="jZVaUwOg5UY3L9NAnvdq-95" value="API" style="outlineConnect=0;fontColor=#232F3E;gradientColor=none;fillColor=#277116;strokeColor=none;dashed=0;verticalLabelPosition=bottom;verticalAlign=top;align=center;html=1;fontSize=12;fontStyle=1;aspect=fixed;pointerEvents=1;shape=mxgraph.aws4.external_sdk;labelBackgroundColor=none;" parent="jZVaUwOg5UY3L9NAnvdq-62" vertex="1">
          <mxGeometry x="73" y="208.5" width="68" height="78" as="geometry" />
        </mxCell>
        <mxCell id="jZVaUwOg5UY3L9NAnvdq-101" value="1" style="rounded=1;whiteSpace=wrap;html=1;fillColor=#007CBD;strokeColor=none;fontColor=#FFFFFF;fontStyle=1;fontSize=22;labelBackgroundColor=none;" parent="jZVaUwOg5UY3L9NAnvdq-62" vertex="1">
          <mxGeometry x="143" y="61" width="40" height="38" as="geometry" />
        </mxCell>
        <mxCell id="-QjtrjUzRDEMRZ5MF8oH-28" value="4" style="rounded=1;whiteSpace=wrap;html=1;fillColor=#007CBD;strokeColor=none;fontColor=#FFFFFF;fontStyle=1;fontSize=22;labelBackgroundColor=none;" parent="1" vertex="1">
          <mxGeometry x="559" y="352" width="40" height="38" as="geometry" />
        </mxCell>
        <mxCell id="jZVaUwOg5UY3L9NAnvdq-72" value="Amazon Lex" style="outlineConnect=0;fontColor=#232F3E;gradientColor=#4AB29A;gradientDirection=north;fillColor=#116D5B;strokeColor=#ffffff;dashed=0;verticalLabelPosition=bottom;verticalAlign=top;align=center;html=1;fontSize=12;fontStyle=1;aspect=fixed;shape=mxgraph.aws4.resourceIcon;resIcon=mxgraph.aws4.lex;labelBackgroundColor=#ffffff;spacingTop=8;" parent="1" vertex="1">
          <mxGeometry x="300" y="202" width="78" height="78" as="geometry" />
        </mxCell>
        <mxCell id="jZVaUwOg5UY3L9NAnvdq-73" value="Amazon S3" style="outlineConnect=0;fontColor=#232F3E;gradientColor=#60A337;gradientDirection=north;fillColor=#277116;strokeColor=#ffffff;dashed=0;verticalLabelPosition=bottom;verticalAlign=top;align=center;html=1;fontSize=12;fontStyle=1;aspect=fixed;shape=mxgraph.aws4.resourceIcon;resIcon=mxgraph.aws4.s3;labelBackgroundColor=none;" parent="1" vertex="1">
          <mxGeometry x="476" y="179" width="78" height="78" as="geometry" />
        </mxCell>
        <mxCell id="jZVaUwOg5UY3L9NAnvdq-74" value="Amazon API&lt;br&gt;Gateway&lt;br&gt;" style="outlineConnect=0;fontColor=#232F3E;gradientColor=#945DF2;gradientDirection=north;fillColor=#5A30B5;strokeColor=#ffffff;dashed=0;verticalLabelPosition=bottom;verticalAlign=top;align=center;html=1;fontSize=12;fontStyle=1;aspect=fixed;shape=mxgraph.aws4.resourceIcon;resIcon=mxgraph.aws4.api_gateway;labelBackgroundColor=none;" parent="1" vertex="1">
          <mxGeometry x="472" y="378.99999999999994" width="78" height="78" as="geometry" />
        </mxCell>
        <mxCell id="jZVaUwOg5UY3L9NAnvdq-75" value="Amazon Kinesis&lt;br&gt;Data Streams&lt;br&gt;" style="outlineConnect=0;fontColor=#232F3E;gradientColor=#945DF2;gradientDirection=north;fillColor=#5A30B5;strokeColor=#ffffff;dashed=0;verticalLabelPosition=bottom;verticalAlign=top;align=center;html=1;fontSize=12;fontStyle=1;aspect=fixed;shape=mxgraph.aws4.resourceIcon;resIcon=mxgraph.aws4.kinesis_data_streams;labelBackgroundColor=#ffffff;spacingTop=5;" parent="1" vertex="1">
          <mxGeometry x="609" y="378.99999999999994" width="78" height="78" as="geometry" />
        </mxCell>
        <mxCell id="jZVaUwOg5UY3L9NAnvdq-76" value="Amazon&lt;br&gt;ElasticSearch&lt;br&gt;" style="outlineConnect=0;fontColor=#232F3E;gradientColor=#945DF2;gradientDirection=north;fillColor=#5A30B5;strokeColor=#ffffff;dashed=0;verticalLabelPosition=bottom;verticalAlign=top;align=center;html=1;fontSize=12;fontStyle=1;aspect=fixed;shape=mxgraph.aws4.resourceIcon;resIcon=mxgraph.aws4.elasticsearch_service;labelBackgroundColor=none;" parent="1" vertex="1">
          <mxGeometry x="744" y="232.5" width="78" height="78" as="geometry" />
        </mxCell>
        <mxCell id="jZVaUwOg5UY3L9NAnvdq-77" value="DynamoDB&lt;br&gt;Streams&lt;br&gt;" style="outlineConnect=0;fontColor=#232F3E;gradientColor=#4D72F3;gradientDirection=north;fillColor=#3334B9;strokeColor=#ffffff;dashed=0;verticalLabelPosition=bottom;verticalAlign=top;align=center;html=1;fontSize=12;fontStyle=1;aspect=fixed;shape=mxgraph.aws4.resourceIcon;resIcon=mxgraph.aws4.dynamodb;labelBackgroundColor=#ffffff;spacingTop=6;" parent="1" vertex="1">
          <mxGeometry x="923.0000000000002" y="232.5" width="78" height="78" as="geometry" />
        </mxCell>
        <mxCell id="jZVaUwOg5UY3L9NAnvdq-78" value="Subscriber&lt;br&gt;Processor&lt;br&gt;" style="outlineConnect=0;fontColor=#232F3E;gradientColor=none;fillColor=#D05C17;strokeColor=none;dashed=0;verticalLabelPosition=bottom;verticalAlign=top;align=center;html=1;fontSize=12;fontStyle=1;aspect=fixed;pointerEvents=1;shape=mxgraph.aws4.lambda_function;labelBackgroundColor=none;" parent="1" vertex="1">
          <mxGeometry x="1040" y="232.5" width="78" height="78" as="geometry" />
        </mxCell>
        <mxCell id="jZVaUwOg5UY3L9NAnvdq-80" value="Request&lt;br&gt;Processor&lt;br&gt;" style="outlineConnect=0;fontColor=#232F3E;gradientColor=none;fillColor=#D05C17;strokeColor=none;dashed=0;verticalLabelPosition=bottom;verticalAlign=top;align=center;html=1;fontSize=12;fontStyle=1;aspect=fixed;pointerEvents=1;shape=mxgraph.aws4.lambda_function;labelBackgroundColor=#ffffff;spacingTop=7;" parent="1" vertex="1">
          <mxGeometry x="744" y="378.9999999999999" width="78" height="78" as="geometry" />
        </mxCell>
        <mxCell id="jZVaUwOg5UY3L9NAnvdq-81" value="Amazon&lt;br&gt;DynamoDB&lt;br&gt;" style="outlineConnect=0;fontColor=#232F3E;gradientColor=#4D72F3;gradientDirection=north;fillColor=#3334B9;strokeColor=#ffffff;dashed=0;verticalLabelPosition=bottom;verticalAlign=top;align=center;html=1;fontSize=12;fontStyle=1;aspect=fixed;shape=mxgraph.aws4.resourceIcon;resIcon=mxgraph.aws4.dynamodb;labelBackgroundColor=#ffffff;" parent="1" vertex="1">
          <mxGeometry x="923.0000000000003" y="378.99999999999994" width="78" height="78" as="geometry" />
        </mxCell>
        <mxCell id="jZVaUwOg5UY3L9NAnvdq-82" value="ERL Function" style="outlineConnect=0;fontColor=#232F3E;gradientColor=none;fillColor=#D05C17;strokeColor=none;dashed=0;verticalLabelPosition=bottom;verticalAlign=top;align=center;html=1;fontSize=12;fontStyle=1;aspect=fixed;pointerEvents=1;shape=mxgraph.aws4.lambda_function;labelBackgroundColor=#ffffff;spacingTop=2;" parent="1" vertex="1">
          <mxGeometry x="1040" y="378.99999999999994" width="78" height="78" as="geometry" />
        </mxCell>
        <mxCell id="jZVaUwOg5UY3L9NAnvdq-83" value="Amazon Cognito" style="outlineConnect=0;fontColor=#232F3E;gradientColor=#F54749;gradientDirection=north;fillColor=#C7131F;strokeColor=#ffffff;dashed=0;verticalLabelPosition=bottom;verticalAlign=top;align=center;html=1;fontSize=12;fontStyle=1;aspect=fixed;shape=mxgraph.aws4.resourceIcon;resIcon=mxgraph.aws4.cognito;labelBackgroundColor=none;" parent="1" vertex="1">
          <mxGeometry x="300" y="556" width="78" height="78" as="geometry" />
        </mxCell>
        <mxCell id="jZVaUwOg5UY3L9NAnvdq-84" value="Amazon Polly" style="outlineConnect=0;fontColor=#232F3E;gradientColor=#4AB29A;gradientDirection=north;fillColor=#116D5B;strokeColor=#ffffff;dashed=0;verticalLabelPosition=bottom;verticalAlign=top;align=center;html=1;fontSize=12;fontStyle=1;aspect=fixed;shape=mxgraph.aws4.resourceIcon;resIcon=mxgraph.aws4.polly;labelBackgroundColor=none;" parent="1" vertex="1">
          <mxGeometry x="300" y="717.5" width="78" height="78" as="geometry" />
        </mxCell>
        <mxCell id="jZVaUwOg5UY3L9NAnvdq-85" value="AWS IoT Core" style="outlineConnect=0;fontColor=#232F3E;gradientColor=#60A337;gradientDirection=north;fillColor=#277116;strokeColor=#ffffff;dashed=0;verticalLabelPosition=bottom;verticalAlign=top;align=center;html=1;fontSize=12;fontStyle=1;aspect=fixed;shape=mxgraph.aws4.resourceIcon;resIcon=mxgraph.aws4.iot_core;labelBackgroundColor=none;" parent="1" vertex="1">
          <mxGeometry x="472" y="560.5" width="78" height="78" as="geometry" />
        </mxCell>
        <mxCell id="jZVaUwOg5UY3L9NAnvdq-86" value="Amazon Pinpoint" style="outlineConnect=0;fontColor=#232F3E;gradientColor=#F54749;gradientDirection=north;fillColor=#C7131F;strokeColor=#ffffff;dashed=0;verticalLabelPosition=bottom;verticalAlign=top;align=center;html=1;fontSize=12;fontStyle=1;aspect=fixed;shape=mxgraph.aws4.resourceIcon;resIcon=mxgraph.aws4.pinpoint;labelBackgroundColor=none;" parent="1" vertex="1">
          <mxGeometry x="472" y="717.4999999999999" width="78" height="78" as="geometry" />
        </mxCell>
        <mxCell id="jZVaUwOg5UY3L9NAnvdq-87" value="IoT Rule" style="outlineConnect=0;fontColor=#232F3E;gradientColor=none;fillColor=#277116;strokeColor=none;dashed=0;verticalLabelPosition=bottom;verticalAlign=top;align=center;html=1;fontSize=12;fontStyle=1;aspect=fixed;pointerEvents=1;shape=mxgraph.aws4.rule;labelBackgroundColor=none;" parent="1" vertex="1">
          <mxGeometry x="625" y="560.5" width="46" height="78" as="geometry" />
        </mxCell>
        <mxCell id="jZVaUwOg5UY3L9NAnvdq-88" value="Users&lt;br&gt;" style="outlineConnect=0;fontColor=#232F3E;gradientColor=none;fillColor=#232F3E;strokeColor=none;dashed=0;verticalLabelPosition=bottom;verticalAlign=top;align=center;html=1;fontSize=12;fontStyle=1;aspect=fixed;pointerEvents=1;shape=mxgraph.aws4.users;labelBackgroundColor=none;" parent="1" vertex="1">
          <mxGeometry x="687" y="717.4999999999999" width="78" height="78" as="geometry" />
        </mxCell>
        <mxCell id="jZVaUwOg5UY3L9NAnvdq-89" value="Amazon&lt;br&gt;Comprehend&lt;br&gt;Medical&lt;br&gt;" style="outlineConnect=0;fontColor=#232F3E;gradientColor=#4AB29A;gradientDirection=north;fillColor=#116D5B;strokeColor=#ffffff;dashed=0;verticalLabelPosition=bottom;verticalAlign=top;align=center;html=1;fontSize=12;fontStyle=1;aspect=fixed;shape=mxgraph.aws4.resourceIcon;resIcon=mxgraph.aws4.comprehend;labelBackgroundColor=none;" parent="1" vertex="1">
          <mxGeometry x="923.0000000000001" y="556" width="78" height="78" as="geometry" />
        </mxCell>
        <mxCell id="jZVaUwOg5UY3L9NAnvdq-90" value="Amazon Personalize" style="outlineConnect=0;fontColor=#232F3E;gradientColor=#4AB29A;gradientDirection=north;fillColor=#116D5B;strokeColor=#ffffff;dashed=0;verticalLabelPosition=bottom;verticalAlign=top;align=center;html=1;fontSize=12;fontStyle=1;aspect=fixed;shape=mxgraph.aws4.resourceIcon;resIcon=mxgraph.aws4.personalize;labelBackgroundColor=none;" parent="1" vertex="1">
          <mxGeometry x="923.0000000000001" y="717.5" width="78" height="78" as="geometry" />
        </mxCell>
        <mxCell id="jZVaUwOg5UY3L9NAnvdq-91" value="Amazon&lt;br&gt;Pinpoint&lt;br&gt;" style="outlineConnect=0;fontColor=#232F3E;gradientColor=#F54749;gradientDirection=north;fillColor=#C7131F;strokeColor=#ffffff;dashed=0;verticalLabelPosition=bottom;verticalAlign=top;align=center;html=1;fontSize=12;fontStyle=1;aspect=fixed;shape=mxgraph.aws4.resourceIcon;resIcon=mxgraph.aws4.pinpoint;labelBackgroundColor=none;" parent="1" vertex="1">
          <mxGeometry x="1210.5" y="147.5" width="78" height="78" as="geometry" />
        </mxCell>
        <mxCell id="jZVaUwOg5UY3L9NAnvdq-92" value="User" style="outlineConnect=0;fontColor=#232F3E;gradientColor=none;fillColor=#232F3E;strokeColor=none;dashed=0;verticalLabelPosition=bottom;verticalAlign=top;align=center;html=1;fontSize=12;fontStyle=1;aspect=fixed;pointerEvents=1;shape=mxgraph.aws4.user;labelBackgroundColor=none;" parent="1" vertex="1">
          <mxGeometry x="1431.5000000000002" y="147.5" width="78" height="78" as="geometry" />
        </mxCell>
        <mxCell id="jZVaUwOg5UY3L9NAnvdq-93" value="API" style="outlineConnect=0;fontColor=#232F3E;gradientColor=none;fillColor=#232F3E;strokeColor=none;dashed=0;verticalLabelPosition=bottom;verticalAlign=top;align=center;html=1;fontSize=12;fontStyle=1;aspect=fixed;pointerEvents=1;shape=mxgraph.aws4.external_sdk;labelBackgroundColor=none;" parent="1" vertex="1">
          <mxGeometry x="1436.5000000000002" y="256" width="68" height="78" as="geometry" />
        </mxCell>
        <mxCell id="jZVaUwOg5UY3L9NAnvdq-94" value="API&lt;br&gt;" style="outlineConnect=0;fontColor=#232F3E;gradientColor=none;fillColor=#232F3E;strokeColor=none;dashed=0;verticalLabelPosition=bottom;verticalAlign=top;align=center;html=1;fontSize=12;fontStyle=1;aspect=fixed;pointerEvents=1;shape=mxgraph.aws4.external_sdk;labelBackgroundColor=none;" parent="1" vertex="1">
          <mxGeometry x="1436.5000000000002" y="359.5" width="68" height="78" as="geometry" />
        </mxCell>
        <mxCell id="jZVaUwOg5UY3L9NAnvdq-97" value="AWS Lake&lt;br&gt;Formation&lt;br&gt;" style="outlineConnect=0;fontColor=#232F3E;gradientColor=#945DF2;gradientDirection=north;fillColor=#5A30B5;strokeColor=#ffffff;dashed=0;verticalLabelPosition=bottom;verticalAlign=top;align=center;html=1;fontSize=12;fontStyle=1;aspect=fixed;shape=mxgraph.aws4.resourceIcon;resIcon=mxgraph.aws4.lake_formation;labelBackgroundColor=#ffffff;" parent="1" vertex="1">
          <mxGeometry x="1210" y="556" width="78" height="78" as="geometry" />
        </mxCell>
        <mxCell id="jZVaUwOg5UY3L9NAnvdq-98" value="Execute Model" style="outlineConnect=0;fontColor=#232F3E;gradientColor=none;fillColor=#D05C17;strokeColor=none;dashed=0;verticalLabelPosition=bottom;verticalAlign=top;align=center;html=1;fontSize=12;fontStyle=1;aspect=fixed;pointerEvents=1;shape=mxgraph.aws4.lambda_function;labelBackgroundColor=none;" parent="1" vertex="1">
          <mxGeometry x="1210" y="717.4999999999999" width="78" height="78" as="geometry" />
        </mxCell>
        <mxCell id="jZVaUwOg5UY3L9NAnvdq-99" value="Related &quot;Casual&quot;&lt;br&gt;Data&lt;br&gt;" style="outlineConnect=0;fontColor=#232F3E;gradientColor=none;fillColor=#BE0917;strokeColor=none;dashed=0;verticalLabelPosition=bottom;verticalAlign=top;align=center;html=1;fontSize=12;fontStyle=1;aspect=fixed;pointerEvents=1;shape=mxgraph.aws4.fleet_management;labelBackgroundColor=none;" parent="1" vertex="1">
          <mxGeometry x="1431" y="556" width="78" height="78" as="geometry" />
        </mxCell>
        <mxCell id="jZVaUwOg5UY3L9NAnvdq-100" value="Research&lt;br&gt;" style="outlineConnect=0;fontColor=#232F3E;gradientColor=none;fillColor=#116D5B;strokeColor=none;dashed=0;verticalLabelPosition=bottom;verticalAlign=top;align=center;html=1;fontSize=12;fontStyle=1;aspect=fixed;pointerEvents=1;shape=mxgraph.aws4.sagemaker_notebook;labelBackgroundColor=none;" parent="1" vertex="1">
          <mxGeometry x="1436" y="738" width="68" height="78" as="geometry" />
        </mxCell>
        <mxCell id="jZVaUwOg5UY3L9NAnvdq-102" value="2" style="rounded=1;whiteSpace=wrap;html=1;fillColor=#007CBD;strokeColor=none;fontColor=#FFFFFF;fontStyle=1;fontSize=22;labelBackgroundColor=none;" parent="1" vertex="1">
          <mxGeometry x="319" y="507.5" width="40" height="38" as="geometry" />
        </mxCell>
        <mxCell id="jZVaUwOg5UY3L9NAnvdq-103" value="3" style="rounded=1;whiteSpace=wrap;html=1;fillColor=#007CBD;strokeColor=none;fontColor=#FFFFFF;fontStyle=1;fontSize=22;labelBackgroundColor=none;" parent="1" vertex="1">
          <mxGeometry x="491" y="674.5" width="40" height="38" as="geometry" />
        </mxCell>
        <mxCell id="jZVaUwOg5UY3L9NAnvdq-104" value="5" style="rounded=1;whiteSpace=wrap;html=1;fillColor=#007CBD;strokeColor=none;fontColor=#FFFFFF;fontStyle=1;fontSize=22;labelBackgroundColor=none;" parent="1" vertex="1">
          <mxGeometry x="880" y="218" width="40" height="38" as="geometry" />
        </mxCell>
        <mxCell id="jZVaUwOg5UY3L9NAnvdq-105" value="6" style="rounded=1;whiteSpace=wrap;html=1;fillColor=#007CBD;strokeColor=none;fontColor=#FFFFFF;fontStyle=1;fontSize=22;labelBackgroundColor=none;" parent="1" vertex="1">
          <mxGeometry x="880" y="363" width="40" height="38" as="geometry" />
        </mxCell>
        <mxCell id="jZVaUwOg5UY3L9NAnvdq-106" value="7" style="rounded=1;whiteSpace=wrap;html=1;fillColor=#007CBD;strokeColor=none;fontColor=#FFFFFF;fontStyle=1;fontSize=22;labelBackgroundColor=none;" parent="1" vertex="1">
          <mxGeometry x="880" y="539" width="40" height="38" as="geometry" />
        </mxCell>
        <mxCell id="jZVaUwOg5UY3L9NAnvdq-107" value="8" style="rounded=1;whiteSpace=wrap;html=1;fillColor=#007CBD;strokeColor=none;fontColor=#FFFFFF;fontStyle=1;fontSize=22;labelBackgroundColor=none;" parent="1" vertex="1">
          <mxGeometry x="880" y="695" width="40" height="38" as="geometry" />
        </mxCell>
        <mxCell id="jZVaUwOg5UY3L9NAnvdq-108" value="9" style="rounded=1;whiteSpace=wrap;html=1;fillColor=#007CBD;strokeColor=none;fontColor=#FFFFFF;fontStyle=1;fontSize=22;labelBackgroundColor=none;" parent="1" vertex="1">
          <mxGeometry x="1130" y="525" width="40" height="38" as="geometry" />
        </mxCell>
        <mxCell id="jZVaUwOg5UY3L9NAnvdq-96" value="Amazon&lt;br&gt;SageMaker&lt;br&gt;" style="outlineConnect=0;fontColor=#232F3E;gradientColor=#4AB29A;gradientDirection=north;fillColor=#116D5B;strokeColor=#ffffff;dashed=0;verticalLabelPosition=bottom;verticalAlign=top;align=center;html=1;fontSize=12;fontStyle=1;aspect=fixed;shape=mxgraph.aws4.resourceIcon;resIcon=mxgraph.aws4.sagemaker;labelBackgroundColor=#ffffff;spacingTop=7;" parent="1" vertex="1">
          <mxGeometry x="1210" y="416.49999999999983" width="78" height="78" as="geometry" />
        </mxCell>
        <mxCell id="jZVaUwOg5UY3L9NAnvdq-163" value="" style="group;fontStyle=1" parent="1" vertex="1" connectable="0">
          <mxGeometry x="252.50000000000006" y="743.5" width="21" height="26" as="geometry" />
        </mxCell>
        <mxCell id="jZVaUwOg5UY3L9NAnvdq-162" value="" style="rounded=0;whiteSpace=wrap;html=1;labelBackgroundColor=#ffffff;fontSize=14;align=center;strokeColor=none;fontStyle=1" parent="jZVaUwOg5UY3L9NAnvdq-163" vertex="1">
          <mxGeometry width="21" height="26" as="geometry" />
        </mxCell>
        <mxCell id="jZVaUwOg5UY3L9NAnvdq-161" value="" style="outlineConnect=0;fontColor=#232F3E;gradientColor=none;fillColor=#B3B3B3;strokeColor=none;dashed=0;verticalLabelPosition=bottom;verticalAlign=top;align=center;html=1;fontSize=12;fontStyle=1;aspect=fixed;pointerEvents=1;shape=mxgraph.aws4.encrypted_data;labelBackgroundColor=#ffffff;" parent="jZVaUwOg5UY3L9NAnvdq-163" vertex="1">
          <mxGeometry width="21" height="26" as="geometry" />
        </mxCell>
        <mxCell id="jZVaUwOg5UY3L9NAnvdq-164" value="" style="group;fontStyle=1" parent="1" vertex="1" connectable="0">
          <mxGeometry x="253.00000000000006" y="667.5" width="21" height="26" as="geometry" />
        </mxCell>
        <mxCell id="jZVaUwOg5UY3L9NAnvdq-165" value="" style="rounded=0;whiteSpace=wrap;html=1;labelBackgroundColor=#ffffff;fontSize=14;align=center;strokeColor=none;fontStyle=1" parent="jZVaUwOg5UY3L9NAnvdq-164" vertex="1">
          <mxGeometry width="21" height="26" as="geometry" />
        </mxCell>
        <mxCell id="jZVaUwOg5UY3L9NAnvdq-166" value="" style="outlineConnect=0;fontColor=#232F3E;gradientColor=none;fillColor=#B3B3B3;strokeColor=none;dashed=0;verticalLabelPosition=bottom;verticalAlign=top;align=center;html=1;fontSize=12;fontStyle=1;aspect=fixed;pointerEvents=1;shape=mxgraph.aws4.encrypted_data;labelBackgroundColor=#ffffff;" parent="jZVaUwOg5UY3L9NAnvdq-164" vertex="1">
          <mxGeometry width="21" height="26" as="geometry" />
        </mxCell>
        <mxCell id="jZVaUwOg5UY3L9NAnvdq-167" value="" style="group;fontStyle=1" parent="1" vertex="1" connectable="0">
          <mxGeometry x="253.00000000000006" y="579" width="21" height="26" as="geometry" />
        </mxCell>
        <mxCell id="jZVaUwOg5UY3L9NAnvdq-168" value="" style="rounded=0;whiteSpace=wrap;html=1;labelBackgroundColor=#ffffff;fontSize=14;align=center;strokeColor=none;fontStyle=1" parent="jZVaUwOg5UY3L9NAnvdq-167" vertex="1">
          <mxGeometry width="21" height="26" as="geometry" />
        </mxCell>
        <mxCell id="jZVaUwOg5UY3L9NAnvdq-169" value="" style="outlineConnect=0;fontColor=#232F3E;gradientColor=none;fillColor=#B3B3B3;strokeColor=none;dashed=0;verticalLabelPosition=bottom;verticalAlign=top;align=center;html=1;fontSize=12;fontStyle=1;aspect=fixed;pointerEvents=1;shape=mxgraph.aws4.encrypted_data;labelBackgroundColor=#ffffff;" parent="jZVaUwOg5UY3L9NAnvdq-167" vertex="1">
          <mxGeometry width="21" height="26" as="geometry" />
        </mxCell>
        <mxCell id="jZVaUwOg5UY3L9NAnvdq-170" value="" style="group;fontStyle=1" parent="1" vertex="1" connectable="0">
          <mxGeometry x="253.00000000000006" y="439.5" width="21" height="26" as="geometry" />
        </mxCell>
        <mxCell id="jZVaUwOg5UY3L9NAnvdq-171" value="" style="rounded=0;whiteSpace=wrap;html=1;labelBackgroundColor=#ffffff;fontSize=14;align=center;strokeColor=none;fontStyle=1" parent="jZVaUwOg5UY3L9NAnvdq-170" vertex="1">
          <mxGeometry width="21" height="26" as="geometry" />
        </mxCell>
        <mxCell id="jZVaUwOg5UY3L9NAnvdq-172" value="" style="outlineConnect=0;fontColor=#232F3E;gradientColor=none;fillColor=#B3B3B3;strokeColor=none;dashed=0;verticalLabelPosition=bottom;verticalAlign=top;align=center;html=1;fontSize=12;fontStyle=1;aspect=fixed;pointerEvents=1;shape=mxgraph.aws4.encrypted_data;labelBackgroundColor=#ffffff;" parent="jZVaUwOg5UY3L9NAnvdq-170" vertex="1">
          <mxGeometry width="21" height="26" as="geometry" />
        </mxCell>
        <mxCell id="jZVaUwOg5UY3L9NAnvdq-173" value="" style="group;fontStyle=1" parent="1" vertex="1" connectable="0">
          <mxGeometry x="252.50000000000006" y="404.5" width="21" height="26" as="geometry" />
        </mxCell>
        <mxCell id="jZVaUwOg5UY3L9NAnvdq-174" value="" style="rounded=0;whiteSpace=wrap;html=1;labelBackgroundColor=#ffffff;fontSize=14;align=center;strokeColor=none;fontStyle=1" parent="jZVaUwOg5UY3L9NAnvdq-173" vertex="1">
          <mxGeometry width="21" height="26" as="geometry" />
        </mxCell>
        <mxCell id="jZVaUwOg5UY3L9NAnvdq-175" value="" style="outlineConnect=0;fontColor=#232F3E;gradientColor=none;fillColor=#B3B3B3;strokeColor=none;dashed=0;verticalLabelPosition=bottom;verticalAlign=top;align=center;html=1;fontSize=12;fontStyle=1;aspect=fixed;pointerEvents=1;shape=mxgraph.aws4.encrypted_data;labelBackgroundColor=#ffffff;" parent="jZVaUwOg5UY3L9NAnvdq-173" vertex="1">
          <mxGeometry width="21" height="26" as="geometry" />
        </mxCell>
        <mxCell id="jZVaUwOg5UY3L9NAnvdq-176" value="" style="group;fontStyle=1" parent="1" vertex="1" connectable="0">
          <mxGeometry x="253.00000000000006" y="369" width="21" height="26" as="geometry" />
        </mxCell>
        <mxCell id="jZVaUwOg5UY3L9NAnvdq-177" value="" style="rounded=0;whiteSpace=wrap;html=1;labelBackgroundColor=#ffffff;fontSize=14;align=center;strokeColor=none;fontStyle=1" parent="jZVaUwOg5UY3L9NAnvdq-176" vertex="1">
          <mxGeometry width="21" height="26" as="geometry" />
        </mxCell>
        <mxCell id="jZVaUwOg5UY3L9NAnvdq-178" value="" style="outlineConnect=0;fontColor=#232F3E;gradientColor=none;fillColor=#B3B3B3;strokeColor=none;dashed=0;verticalLabelPosition=bottom;verticalAlign=top;align=center;html=1;fontSize=12;fontStyle=1;aspect=fixed;pointerEvents=1;shape=mxgraph.aws4.encrypted_data;labelBackgroundColor=#ffffff;" parent="jZVaUwOg5UY3L9NAnvdq-176" vertex="1">
          <mxGeometry width="21" height="26" as="geometry" />
        </mxCell>
        <mxCell id="jZVaUwOg5UY3L9NAnvdq-179" value="" style="group;fontStyle=1" parent="1" vertex="1" connectable="0">
          <mxGeometry x="1350" y="384.5" width="21" height="26" as="geometry" />
        </mxCell>
        <mxCell id="jZVaUwOg5UY3L9NAnvdq-180" value="" style="rounded=0;whiteSpace=wrap;html=1;labelBackgroundColor=#ffffff;fontSize=14;align=center;strokeColor=none;fontStyle=1" parent="jZVaUwOg5UY3L9NAnvdq-179" vertex="1">
          <mxGeometry width="21" height="26" as="geometry" />
        </mxCell>
        <mxCell id="jZVaUwOg5UY3L9NAnvdq-181" value="" style="outlineConnect=0;fontColor=#232F3E;gradientColor=none;fillColor=#B3B3B3;strokeColor=none;dashed=0;verticalLabelPosition=bottom;verticalAlign=top;align=center;html=1;fontSize=12;fontStyle=1;aspect=fixed;pointerEvents=1;shape=mxgraph.aws4.encrypted_data;labelBackgroundColor=#ffffff;" parent="jZVaUwOg5UY3L9NAnvdq-179" vertex="1">
          <mxGeometry width="21" height="26" as="geometry" />
        </mxCell>
        <mxCell id="jZVaUwOg5UY3L9NAnvdq-182" value="" style="group;fontStyle=1" parent="1" vertex="1" connectable="0">
          <mxGeometry x="1350" y="282" width="21" height="26" as="geometry" />
        </mxCell>
        <mxCell id="jZVaUwOg5UY3L9NAnvdq-183" value="" style="rounded=0;whiteSpace=wrap;html=1;labelBackgroundColor=#ffffff;fontSize=14;align=center;strokeColor=none;fontStyle=1" parent="jZVaUwOg5UY3L9NAnvdq-182" vertex="1">
          <mxGeometry width="21" height="26" as="geometry" />
        </mxCell>
        <mxCell id="jZVaUwOg5UY3L9NAnvdq-184" value="" style="outlineConnect=0;fontColor=#232F3E;gradientColor=none;fillColor=#B3B3B3;strokeColor=none;dashed=0;verticalLabelPosition=bottom;verticalAlign=top;align=center;html=1;fontSize=12;fontStyle=1;aspect=fixed;pointerEvents=1;shape=mxgraph.aws4.encrypted_data;labelBackgroundColor=#ffffff;" parent="jZVaUwOg5UY3L9NAnvdq-182" vertex="1">
          <mxGeometry width="21" height="26" as="geometry" />
        </mxCell>
        <mxCell id="jZVaUwOg5UY3L9NAnvdq-185" value="" style="group;fontStyle=1" parent="1" vertex="1" connectable="0">
          <mxGeometry x="1350" y="581.5" width="21" height="26" as="geometry" />
        </mxCell>
        <mxCell id="jZVaUwOg5UY3L9NAnvdq-186" value="" style="rounded=0;whiteSpace=wrap;html=1;labelBackgroundColor=#ffffff;fontSize=14;align=center;strokeColor=none;fontStyle=1" parent="jZVaUwOg5UY3L9NAnvdq-185" vertex="1">
          <mxGeometry width="21" height="26" as="geometry" />
        </mxCell>
        <mxCell id="jZVaUwOg5UY3L9NAnvdq-187" value="" style="outlineConnect=0;fontColor=#232F3E;gradientColor=none;fillColor=#B3B3B3;strokeColor=none;dashed=0;verticalLabelPosition=bottom;verticalAlign=top;align=center;html=1;fontSize=12;fontStyle=1;aspect=fixed;pointerEvents=1;shape=mxgraph.aws4.encrypted_data;labelBackgroundColor=#ffffff;" parent="jZVaUwOg5UY3L9NAnvdq-185" vertex="1">
          <mxGeometry width="21" height="26" as="geometry" />
        </mxCell>
        <mxCell id="jZVaUwOg5UY3L9NAnvdq-188" value="" style="group;fontStyle=1" parent="1" vertex="1" connectable="0">
          <mxGeometry x="1350" y="672" width="21" height="26" as="geometry" />
        </mxCell>
        <mxCell id="jZVaUwOg5UY3L9NAnvdq-189" value="" style="rounded=0;whiteSpace=wrap;html=1;labelBackgroundColor=#ffffff;fontSize=14;align=center;strokeColor=none;fontStyle=1" parent="jZVaUwOg5UY3L9NAnvdq-188" vertex="1">
          <mxGeometry width="21" height="26" as="geometry" />
        </mxCell>
        <mxCell id="jZVaUwOg5UY3L9NAnvdq-190" value="" style="outlineConnect=0;fontColor=#232F3E;gradientColor=none;fillColor=#B3B3B3;strokeColor=none;dashed=0;verticalLabelPosition=bottom;verticalAlign=top;align=center;html=1;fontSize=12;fontStyle=1;aspect=fixed;pointerEvents=1;shape=mxgraph.aws4.encrypted_data;labelBackgroundColor=#ffffff;" parent="jZVaUwOg5UY3L9NAnvdq-188" vertex="1">
          <mxGeometry width="21" height="26" as="geometry" />
        </mxCell>
      </root>
    </mxGraphModel>
  </diagram>
  <diagram id="IH6xER1vt-nEVigJEM9u" name="페이지-2">
    <mxGraphModel dx="2231" dy="1206" grid="1" gridSize="10" guides="1" tooltips="1" connect="1" arrows="1" fold="1" page="1" pageScale="1" pageWidth="827" pageHeight="1169" math="0" shadow="0">
      <root>
        <mxCell id="0" />
        <mxCell id="1" parent="0" />
        <mxCell id="C05QFXZt1d4xJxeR_DJM-1" value="&lt;font style=&quot;font-size: 15px;&quot;&gt;MariaDB&lt;/font&gt;" style="sketch=0;points=[[0,0,0],[0.25,0,0],[0.5,0,0],[0.75,0,0],[1,0,0],[0,1,0],[0.25,1,0],[0.5,1,0],[0.75,1,0],[1,1,0],[0,0.25,0],[0,0.5,0],[0,0.75,0],[1,0.25,0],[1,0.5,0],[1,0.75,0]];outlineConnect=0;fontColor=#21A7C3;fillColor=none;strokeColor=#21A7C3;dashed=0;verticalLabelPosition=bottom;verticalAlign=top;align=center;html=1;fontSize=15;fontStyle=1;aspect=fixed;shape=mxgraph.aws4.resourceIcon;resIcon=mxgraph.aws4.database;" parent="1" vertex="1">
          <mxGeometry x="840" y="840" width="100" height="100" as="geometry" />
        </mxCell>
        <mxCell id="C05QFXZt1d4xJxeR_DJM-2" value="User" style="sketch=0;outlineConnect=0;fontColor=#232F3E;gradientColor=none;fillColor=#232F3D;strokeColor=none;dashed=0;verticalLabelPosition=bottom;verticalAlign=top;align=center;html=1;fontSize=12;fontStyle=1;aspect=fixed;pointerEvents=1;shape=mxgraph.aws4.mobile_client;" parent="1" vertex="1">
          <mxGeometry x="1058" y="260" width="52.56" height="100" as="geometry" />
        </mxCell>
        <mxCell id="C05QFXZt1d4xJxeR_DJM-3" value="PRIVATE&lt;br&gt;(Hospital)" style="sketch=0;outlineConnect=0;fontColor=#232F3E;gradientColor=none;fillColor=#000000;strokeColor=none;dashed=0;verticalLabelPosition=bottom;verticalAlign=top;align=center;html=1;fontSize=12;fontStyle=1;aspect=fixed;pointerEvents=1;shape=mxgraph.aws4.corporate_data_center;" parent="1" vertex="1">
          <mxGeometry x="200" y="250" width="67.95" height="100" as="geometry" />
        </mxCell>
        <mxCell id="C05QFXZt1d4xJxeR_DJM-9" value="Redis" style="sketch=0;points=[[0,0,0],[0.25,0,0],[0.5,0,0],[0.75,0,0],[1,0,0],[0,1,0],[0.25,1,0],[0.5,1,0],[0.75,1,0],[1,1,0],[0,0.25,0],[0,0.5,0],[0,0.75,0],[1,0.25,0],[1,0.5,0],[1,0.75,0]];outlineConnect=0;dashed=0;verticalLabelPosition=bottom;verticalAlign=top;align=center;html=1;fontSize=15;fontStyle=1;aspect=fixed;shape=mxgraph.aws4.resourceIcon;resIcon=mxgraph.aws4.elasticache;fillColor=none;strokeColor=#21A7C3;strokeWidth=1;fontColor=#21A7C3;" parent="1" vertex="1">
          <mxGeometry x="840" y="1000" width="100" height="100" as="geometry" />
        </mxCell>
        <mxCell id="C05QFXZt1d4xJxeR_DJM-10" value="Admin" style="sketch=0;outlineConnect=0;fontColor=#000000;gradientColor=none;fillColor=#003967;strokeColor=none;dashed=0;verticalLabelPosition=bottom;verticalAlign=top;align=center;html=1;fontSize=15;fontStyle=1;aspect=fixed;pointerEvents=1;shape=mxgraph.aws4.servers;fontFamily=Helvetica;" parent="1" vertex="1">
          <mxGeometry x="1400" y="860" width="100" height="100" as="geometry" />
        </mxCell>
        <mxCell id="QJePiBiGjla0rxZGbsFe-1" value="&lt;span&gt;&lt;font style=&quot;font-size: 15px;&quot;&gt;PC (WEB)&lt;/font&gt;&lt;/span&gt;" style="sketch=0;outlineConnect=0;fontColor=#000000;gradientColor=none;fillColor=#000000;strokeColor=none;dashed=0;verticalLabelPosition=bottom;verticalAlign=top;align=center;html=1;fontSize=12;fontStyle=1;aspect=fixed;pointerEvents=1;shape=mxgraph.aws4.client;" parent="1" vertex="1">
          <mxGeometry x="820" y="500" width="102.63" height="100" as="geometry" />
        </mxCell>
        <mxCell id="QJePiBiGjla0rxZGbsFe-2" value="PRIVATE&lt;br&gt;(Heuron)" style="sketch=0;outlineConnect=0;fontColor=#21A7C3;gradientColor=none;fillColor=#21A7C3;strokeColor=none;dashed=0;verticalLabelPosition=bottom;verticalAlign=top;align=center;html=1;fontSize=12;fontStyle=1;aspect=fixed;pointerEvents=1;shape=mxgraph.aws4.corporate_data_center;" parent="1" vertex="1">
          <mxGeometry x="630" y="220" width="67.95" height="100" as="geometry" />
        </mxCell>
        <mxCell id="QJePiBiGjla0rxZGbsFe-6" value="Modality" style="shape=image;verticalLabelPosition=bottom;labelBackgroundColor=none;verticalAlign=top;aspect=fixed;imageAspect=0;image=data:image/svg+xml,PHN2ZyB4bWxucz0iaHR0cDovL3d3dy53My5vcmcvMjAwMC9zdmciIHdpZHRoPSI2NCIgdmlld0JveD0iMCAwIDY0IDY0IiBoZWlnaHQ9IjY0Ij48cGF0aCBkPSJtLjgwOSAzNi4xMjdoNDAuMDkxdjMuNzU4aC00MC4wOTF2LTMuNzU4eiIvPjxwYXRoIGQ9Im0zMi4yNzUgMjguMjI3YzAtMi42MjggMi4xMzEtNC43NTUgNC43NTUtNC43NTUgMi42MjEgMCA0Ljc1OCAyLjEyNyA0Ljc1OCA0Ljc1NSAwIDIuNjItMi4xMzcgNC43NTctNC43NTggNC43NTctMi42MjQgMC00Ljc1NS0yLjEzNy00Ljc1NS00Ljc1N3oiLz48cGF0aCBkPSJtMjYuMTk1IDIzLjMwNmgtMTUuOTI5bC05LjQ3MiAxLjQ1djguMjIybDQuNzguMDAyYy0uMzc5LS42MTMtLjYwOS0xLjMyOS0uNjA5LTIuMTAxIDAtMi4yMTkgMS44MDQtNC4wMjQgNC4wMjMtNC4wMjRoOC43MjNsNy4wNzEtMS40NzguMzkyIDEuODc4LTcuMjY1IDEuNTE3aC04LjkyMWMtMS4xNjMgMC0yLjEwNi45NDItMi4xMDYgMi4xMDYgMCAxLjE1My45MjcgMi4wODYgMi4wNzggMi4xMDFsMTcuMjcyLjAwMmMyLjY3LS4wMjEgNC44MTQtMi4xNzIgNC44MTQtNC44MzMuMDAxLTIuNjcyLTIuMTYyLTQuODQzLTQuODUxLTQuODQzeiIvPjxwYXRoIGQ9Im0zNC40MzggNDkuOTcyYzEwLjYyNiAwIDE5LjI0LTguNjE1IDE5LjI0LTE5LjI0MSAwLTEwLjYyOC04LjYxMy0xOS4yNDItMTkuMjQtMTkuMjQyLTYuOTQ3IDAtMTMuMDE3IDMuNjk3LTE2LjQgOS4yMTdoOC4wNThjMi4yNzItMS45MDQgNS4xOTUtMy4wNTIgOC4zOS0zLjA1MiA3LjIyMSAwIDEzLjA3NSA1Ljg1NSAxMy4wNzUgMTMuMDc3IDAgNy4yMjMtNS44NTUgMTMuMDc4LTEzLjA3NSAxMy4wNzgtMi4wNDkgMC0zLjk3OS0uNDg1LTUuNzA1LTEuMzI1aC05LjU1MmMzLjUxOCA0LjU0NyA5LjAxNCA3LjQ4NyAxNS4yMDkgNy40ODd6Ii8+PHBhdGggZD0ibTM0LjQzOC44NzNjLTEzLjE2NiAwLTI0LjMyOCA4LjU1MS0yOC4yNTkgMjAuMzk5bDMuNjY5LS41NzEgNS45NTQuMDAyYzMuNTc1LTYuNjI5IDEwLjU3OC0xMS4xMzUgMTguNjM1LTExLjEzNSAxMS42ODggMCAyMS4xNjMgOS40NzYgMjEuMTYzIDIxLjE2NCAwIDExLjY4OS05LjQ3NCAyMS4xNjMtMjEuMTYzIDIxLjE2My03LjMzOSAwLTEzLjgtMy43MzktMTcuNTk2LTkuNDE0aC05LjczMWM0LjU3NSAxMC41NTggMTUuMDg2IDE3Ljk0OCAyNy4zMjcgMTcuOTQ4IDE2LjQ0NSAwIDI5Ljc3OC0xMy4zMzEgMjkuNzc4LTI5Ljc3OCAwLTE2LjQ0NC0xMy4zMzMtMjkuNzc4LTI5Ljc3OC0yOS43Nzh6bTYuNzU3IDYuNzcxYy0uMTA4LjQzLS40OTIuNzE2LS45MTUuNzE2LS4wNzYgMC0uMTU0LS4wMDgtLjIzLS4wMy0zLjYzNC0uOTA2LTcuNDkzLS45MDYtMTEuMTMgMC0uNTA2LjEzNS0xLjAxOC0uMTgxLTEuMTQ1LS42ODdzLjE4MS0xLjAxOC42ODktMS4xNDRjMy45MzUtLjk4MiA4LjEwOC0uOTgyIDEyLjA0MyAwIC41MDYuMTI3LjgxMy42MzkuNjg3IDEuMTQ1eiIvPjwvc3ZnPg==;fontStyle=1;fontSize=15;imageBackground=none;imageBorder=none;fontColor=default;" parent="1" vertex="1">
          <mxGeometry x="364" y="660" width="100" height="100" as="geometry" />
        </mxCell>
        <mxCell id="QJePiBiGjla0rxZGbsFe-8" value="&lt;b&gt;&lt;font style=&quot;font-size: 15px;&quot;&gt;Pacs&lt;/font&gt;&lt;/b&gt;" style="sketch=0;outlineConnect=0;fontColor=#000000;gradientColor=none;fillColor=#000000;strokeColor=none;dashed=0;verticalLabelPosition=bottom;verticalAlign=top;align=center;html=1;fontSize=12;fontStyle=0;aspect=fixed;pointerEvents=1;shape=mxgraph.aws4.traditional_server;" parent="1" vertex="1">
          <mxGeometry x="540" y="660" width="57.69" height="100" as="geometry" />
        </mxCell>
        <mxCell id="QJePiBiGjla0rxZGbsFe-15" value="Engine" style="sketch=0;points=[[0,0,0],[0.25,0,0],[0.5,0,0],[0.75,0,0],[1,0,0],[0,1,0],[0.25,1,0],[0.5,1,0],[0.75,1,0],[1,1,0],[0,0.25,0],[0,0.5,0],[0,0.75,0],[1,0.25,0],[1,0.5,0],[1,0.75,0]];outlineConnect=0;fontColor=#21a7c3;fillColor=none;strokeColor=#21a7c3;dashed=0;verticalLabelPosition=bottom;verticalAlign=top;align=center;html=1;fontSize=15;fontStyle=1;aspect=fixed;shape=mxgraph.aws4.resourceIcon;resIcon=mxgraph.aws4.machine_learning;" parent="1" vertex="1">
          <mxGeometry x="680" y="840" width="100" height="100" as="geometry" />
        </mxCell>
        <mxCell id="QJePiBiGjla0rxZGbsFe-16" value="Heuron Agent&#xa;(On-premise)" style="shape=image;verticalLabelPosition=bottom;labelBackgroundColor=default;verticalAlign=top;aspect=fixed;imageAspect=0;image=data:image/png,iVBORw0KGgoAAAANSUhEUgAAAFQAAABNCAYAAAA4skOSAAAAAXNSR0IArs4c6QAAAARnQU1BAACxjwv8YQUAAAAJcEhZcwAAFxEAABcRAcom8z8AAByQSURBVHhe7dwJdFT1vQfwyWSWLBBAdkHEulRFBUGlal99avVUq+1pXV7fe11fPfa9nte6bwgGBASyzkz2hJAQ9oAIiFVq+9TW6rGiVqTijkBYEgIJ2Sczc3/v+/svc/93ZoJotbbo/5zvuTN3lsz9zO+/3Mkkri/bF6TdutXl3WJdlb3ywPWj1/VdfOaqI1MuWRuZfPWqvinfXdtz4c2P0SVT1F2/bEntGZenpu+Es1b3Tb92Q/+lt60LX1i5tv+ipx+NTH97fWT6oY3WpR0brX/p2WR9Pbwhdmn099aVsWet/8xXj/6ycavae8aIZd0Tv7M6ck7R+uj036+LTmtaT+fRkzSFNtP5tJHOofV0Bq2lU6iRTqbVNEFkFY2n3+I+z1r/fpt6qi9uy2vOGrO674IbGiOTaxuj5+1eF5sS2URn0yY6nR6lUwXYCjpRZRytpJMAeLIjKwH6OF1Az0Z++n31tF+81hCeNHll5Py8dbGpr69H5W2is0TVraSxgBtLyw1AiSi3MhMQvq8M3/ZobGrnq/0PXqKe/ovTVvR/7bLV/VOXrY6e27kB3Xc9QBhwGY0GooTUYdAVqD4G06ArRPgxdtZg33pr2vvN1vpT1Y85/tuKnulfXx2b1rgmNim8EV15DQBX0gjAjUIYc0wcUmeZ2DKqhjwJ10/CfpnlqFTOo0DdYF38kmVZ2erHHb9tRe+VX2m0ppeujk3q3oDJZI0AHAEc3poZDaQxAtFMg9iOw+3jsTWjQU+iDXQaPRG7fLP6kcdro7TG6BW3NMamvP8YfQVdlqtxOCBGICORUfE0iIykpWI7Btsx2I41wqgDg67HBLYldk25+sHHX1vT+8NT1sYuXdWIMbJR4AxDhhsZgYxMylKVBlSrE5QzLgmVQVcgawH6TPQHv1I//vhqj0Zu/M4a64J3HxUVxJAnAGm4IybuUuBqSDNcqU7QxCqVFcoz/hqAbuz9l0BRm3dq8c4hQ3PJ5VYv55+3US65N/R//541sXP6VgOqnnIAMwxJBD0BOBpTJxlVDgNOVB5LZWVyeJKSFbqOJlFtx9ho4IirI9ju3h1qc28JtvkfDhzJui7QMvh09RL/edru3Vbmxsj1wUZUygpA1tNgqrew5dAQhGGHiW09QOsVrBPaRrWHAUZ1ViljmjM+bx+LTaXy9mwKdriopMdF5WEXVcV466ZQu2cXsj7UlnFX6ODYM11Eaepl/2O2HQefH/xY/7XL16JS6imblgCzzmJQIwJ5KNVxrKECVYLqmKjm+JpYpYmgskIfjUyhQIufClpcVNSaRkWHZALtaVTWl0Y1lEblfcA9kn64pN2/OXA4+4cL3xk3Xh3CP05rbbVyNvVfh8nnRGBl0RLg6TBq6uTgvly1DMuVa1apTqoq1Uspc12qxtDwJCpq9lF+cxoVHHRTIVLEUbDFh9NQvWlU2ptGldE0quh3U2mn56+hQ5mPFLeOOUsdzufbiMi3ofe6ep7F6ygDiINUjh1VwiajylWAWam8RrVBzSpdRRNpRe/pVNDspbyWNMpvcduorU5UrlhO8AhQoxgWLDcF2tJbSzqySor2j56kDu3zaU/03rigEQdXLzDR1TkxtRXRwDayiSqHAV2tcnxNHFdt1FG4bi/67bOn8ViWnU71XROA6ab8gwDliMsStdBALQIqwxa3SdgQqpaHhGoMCaXd3gMlh7MXlTWdepI6xL9f+13vz36+2poIBD+gDMwBQW3YOKhCrYuj8hAw1IEqVwOMyqDOKpWg43DaeTbVdI6mBQddlI/xMx+AjMnhSuWY4yqjFgG0WFVrANXKFcsTWTUqtuSI973igzm/aNx+k08d7mfbXjwya/qq8FfbGlCZtQBMTDJsqkjgOp7ARMwhQI+tGtauUp6g7Crlbj+e1lpfpcqO4bTwEEABxilACnkLSN7qxFEZNAGVwxVbEcHqoC+dQm1Zm0LN4yarw/5s2jutv8lZ03fRCysxm9fGsmzIqA2q89GoHBPWRJWwTlQGtVG52/PnoGtip1FZxxBa1AZQVF8BUsgxII8GKlAVKFcqp6RLDgOhDt/e4KFht6jD//Tb2u6r5qzGQS4xq5MxE6NvM5Ia1E4dMaw9BNiwPL7yiYJZqbzI54/3xtOq6ETM4FmUd8RFBcCJB2CFOgpZd3czAlWBJsJW9GMo6PGgWgeV5r42eahi+HTa013/fX5DeHx7A8ZNWZ2qQgUiLieicj4GqgRNHgZMVF2pPJ4yKoMuj5xEBUfSKZ9BgSDCoNgWYssp4iRAijAmB/d1groVKpZX3ahWjK2lHZlbSg9PPFlx/G0NSyT38q5Ja7irL7E0ZhYtBuTAyRaxYdXj+PEJ4ecUsOLEAMMAQMUJggOWUUeI6O7PHzgv7T+RFrUbmEaKjhYFqUFTo3Iwnna5MQTwhOV/I9gy4nzF8snbup7Lv1HXNyLMS6QkzIhxOWUYVl6Oow4AW/uRqHzaKk9RGZTH0drwKFrE1YkJxcQsxPWUkCoa0Q7WpAnRoAIVl2uAWtad8W5Z+5gLFc0na/Xdp6xaTpmoNhy0hmLIfiN83Yy+X4ocHRXhSS8OK3ElrBOVf2VS1TuU8nAOX9AJRCNFHEZNTApMszIlZrra6jAo0pEuKrW0O2Nn8OCIaYrn47Xlh75xbnXv4I6lOLWsNbF4a4Im5mioCpS3IilRMQwAlcdVu1rlZwJykuIPqcdQaU825XU6QQVmqijUYp2UmKmiqhSgHK7U0h7/W+UHh39VMR17W9w9et4yxmQIhVXzcQJYETxeJxGXQe1kIhhasF0iUPVkpSvVHk/591CBLp8TFEsenSIzuK0YCZgBqsgAiGZ01w92pmNZxah8OfOFYMeYkYrqo9uy1m/lVPVkv8jd/RNhmklAdcDG8PyxDAG52PLHU8tjNlBN0CVGlTZYowGXTnldLhsRs7JOMW+xL6BSrC8nwHK1BjoSIZ2oJmiIUXu4+2NJ1Zld30g3pSuyo7eyQ8MuqQln9izhA+1n1Ezg6AAlIdXGVqcq4bq4rwMXzxsFICdmYzphZaUyaK1A5SodTnXR4UDE6SWQChWi3mrQABJMDO7PccAyKLpzcpXasEHcLkDxJoa606msH6hRL5V1Zh/br18qccdl5MN4mAEIiWqDZjqgOIxXhf1ymzryfnwfJILnAGh1NAPxAxcBag0QdSSorlQ5UdWKKj0Br2soFQCIw5CFPTJFSDESUEkC5SjUIDA5gU4GtfGSwtg8hqoKDaFCuUprrHScqnoPVnYNmarYBmjkSivv8C9fClDGrO73IxmAUAkDJMxbhcXXDbg4rL5dpTJ+2a+SQZV4wyojfqoEKIdxqwFbbXnxgvGGKlg9pnKV8ilpZXgQ5XN3B1AqzGCqxFGxJEJ1BwHJVSdBbTgdUZV8Gai8LcF9RRgUVVqKbS3G0/Ie35NVW6d5lV5yq9vpyijv8myrw5kRQ0pQCVAVxraPtyYsbzlAE8lU24QIVNzGkHFUGQ1aGfWJVMW8VAVUhq1mWB7LxZJqkAAt68ui/G6AAsrEFKC9A6ECEKAhBo2jclcGqICVkftQiUDk6DFUVyhjatBydP2qiIcqe7J+oviSW2WLa2xFl6d1CYMCUEdiylTGA5x4gIUDjV8HbAX2ycjbK/AGVPB+hZqUiFcG41MlUCsBKmB5+EGVLkaFcpcP9WY4QOOQnD7gYStiYiIC07jOsGJc5CgwEYUpQHWwn8MzvUAFaGmvrNKKXs8bS63BwxWhs5W3u6ZVdHu6agcAtTE5gMHBxRH5sgjQsJXhy/J6ea8fuEbwnHZ8gPbGo2Er4rAYW7lKraEA9Yvxs6jXTcUakRNW2wFAnQEYwzBQKlDzOjIQKE9QizHrA/V/FaGzlbW6rq7o9oZreSzDQSdVJQ7GGQbEtgco8QASKRfJVFuO3xk8TsZHZZywl8o5AC3vx4tEdyqPoGvFcBmolej6NbEcYHjRzdFVw4BBAoDk8GWJii2wQ2Zw/xAAxFaELyPA0bO3o1LVPt3F4/v5Mh5Xgucq6QNqmJdRgO31bGvY70r+jlVJq+t7FV3eKC9nkkAVnBkb0Y4TTkNmUBm2qQNMTq9Xpo/jAbAcpwRqNB2VitcSHYwu7qFiRusfIPxrZNxeosMHj3BFcfT1OKqJy4CqCk1QEY2sQBmTX2MlZvwqvMbqsPdmxWi3QKvrBlSoABWYQOQIUBz8QJhORGc0HE7bUoYxS1F1pd0Ib0U8NgRedClgK2I8aWVTkcDEwQFPRl4WkLhvSGzN8D47XFki/PyMo2PiJezX0HFk7C/Fc+g3fSmqtKrfs1ox2i3Q4rq2vMvbz4vtqj7MuOiKlSLHDikAu+2UJqQkKT7EixdsBmcjfADqIGQ86Mp+CqJaS3AQIhFUIAegJVEODhRbThn2l2E/j3McflM4fFlUPl8GCMOI8JvHMTBTVrABqp+HT0kr+9ObVpD/K4pStuJDrovLOj09NVi+VAAyHgPMvMx4iYhxuC617ZSXHeF9SAgJdvgQL9Z/yBGZ4nYPFbWlU+HhdMpvTadFzemUuzON5u0bhDErh0qtNIytAEFKOeh2JSIARMo52F8ec1MFkCvQJcUW4SGkAggAEFuOgOXq1TEqOBGUL5cxKFKO+wpU/KxaTE6Lw76bFKVsxftdE0s7PO28sDZBsYCNI5YDiWNWYSKkRitVcAKvg5OBdZ0ZP/CQNh8VH/ZR0SEfFR70UX6LlxYe8ND8fR6au9tDue976O5taTRn11C8cKxF+TNKAHIYU2xRJfpyeargoCtUeEwu47GZMRgUERWsYB0Vq6rWrNwyDEmYiLA6QTCB8ptUh59fE/YWKkrZ7sJMFWpLf3cxYcmCCaJCQBpB90wENBFNwBIAlgCMITVgACluR9qQw8ihDCpq9QvEgmYf5SEL9nlpfpOXHt4FyJ0emvWeh2a85aE7/5JGubuGYJkygqrw4isYCVvGqkB1lOM1l1tyy9fjt6v7mKi6ugWqhuVq0+HunJAyDuOK6/g5jKlAeUXCa9KaiPu5KnIZZ065Lneg1b2BQcsxOZRjbOOUiTCmBC1lPEYEHCPqCERUYQhwOgITiAEDsbg1A4gy+c1+yjvgo4X7fPTIXh8q0ktzPvTQQ6jKWe966MG3PXT/Xz10+2suyt2Tg9PSkWKxX4XXWMlwSKVAlOHL8rq8TUejiipV3d+MhtXDQOrguXgLQJEoBz8L6+Ua/IzqiGffinbXMKUpW+Cg5/4leEGJmKWcLhUBqLeIgEQ1KsQSA5MhAwwJxGIAFjFkC0NmoCIz4pDz9/ho3m4fzdnpFZgzGROV+cCbHrr3dQ/d9oqLZjVl4Xx/FF48TnvxGjWq3DojIe1tvEpVpepqreSt2l+mYdXt8fsJON7qy4haHzMmb6vxM6qi3s76sNf59Z7C/emXl3Z6ohVYZEtMLGMw84p0ypQAU0RBMqBGFJCoyCBDohpFgMmQnAIg5h8A5P4MWrA3Q0Iic3f56OGdPoyXXrsygXnfGx665zWAvuqmGU0+VMEY4k/1ZZXKSk2V1MB2pZqwIsZ1Acdbtb+ChxJEICJ8asyQfGqsU4OfURX19a2MZF+hKGVb+L5rSOCQ59Va3KEMiBwNKTFVBKROQvdGRWpIjqhMVKXABCRjPtKE7MkQmPPimD6a9Y6XZgLzgR3ARFfn6rz7Fe7ybrp/j5sqwyfinB5dH6fHVSISkCvEjNwvq1cC89DAVaXwVAScQNP7gKdhGVGlUkRWo/kBjt4yaHXMF10ZGfQ9RWm3ggPpC2twpzJeZCdBojKP6HA3x7IH2yBm6+BhxKhKByaqUlTmPlQlMOfv8aOL++OVORuYD73rE5jc1XncvHcbqvMvmJC2ptPt29x0H0DLeyXoYmAyarVAReUKNInJBycOUMUETQoQGatKocUBxWM4qicYgAyrP7yRvcSHn4fXEPPFVkSHOJdO3B5+z3VusM3bUYnzaicmgnWijE9gcgLADLSZmFgKcRRmocLM48pEN+fKZNC5uxBgzvkA1fmerE7GnMHVuV1W513o7ne+nE53vOGmBwBa0jUWoEMwq2YIVI6sVImqATWsvm5Xqx4m+LqE0/fnrb6uoRwxEOPQKuJNjPmj66wxNyhGZys44Kvn2T4O6cD0AtKLqkR1IgGsI7k6A4c0pB/jJSIq0w9MZJ+fFu71A9PvxERlzhaYXJ0+ehCYD6A6xdiJ6rz7VXT3P7vprjcxhu7hD31HY83H69HMOKquVB5XZWxQrhxRPbicDMX304+xw7fxlp9XPre9X98mt/btbLU4lhleHzntakXobPPey7wA1XeEq1SDliaABtoRgQlULMqLWxGsKSUmgiVRPpZEDJoH0EcAKjCNrs6guaKrA/Mt5E10d1Tnfejud6M673oF3Z1Bd6RjUkqngrbhAB2uQPnDZ1mlJqpGTIyJYkdWuI0jt/o5dfixiTFv4zlnSWxQ12/CXz9PESa3/L2ZhfxCeIZPrk4GlZhBYApQYEpQnPEITAW6H+tMrs4mgAKTl0dzPwSo6uoPoTpnAXTmDh/NYFBU531cna+lS9CtaXTX2+n0ICp0YesQqrPGGKCySvkzXCeCRLT3OWEZTqPKN8IZfgw/NhlWX5bPrW/npWZDdOSBrR23jlB8yW3+tlGji1oy36zBrFYCQCcoILk6AcnR1SlAWxiUKxNnQMDMx1pzITAfwYwuQFGd84zqFKCoTgbl7n4/qvNeVOfdr0rQ27a66Z53JOj85myqt8YDkL8YYVdpIqh5sBpAIpiVZQLZ1xP3m9H7zefnbR1A18ROe34rbR34d0zc8vcMuybUltFfhdOtRMyQrk7GTAGKcVhgLsLCfQHWkBJULpPmojpN0Jmiu/vi3f0erk6A8oR02yuY4bHYZ9C5BzKpPnZyAij/hlSi6gPXB+yMXVXmG5CIp69LWLt7y+vO+8r4iL/H8FjswiLFdvRW0DR0VlU/n88nVKfZ3U1QYBaq6iwAaB6SCDrPAOXuPgvVGQfltaeqzjsYFIv6+3Fez6APY7WwJHqyWNxLVMa0QTWShhso+v7mYwaKRuWxlq8n3p9XC6tpNG2JfO9GRXb0dmvVNG/B3px6/i0kL6OSQM0KRXVqUI3KoAsBukCBzsf4yaAP6wrVoH/10gOoTjF+ClA33YEJ6fa/YIYH6MzdqND9qMgwVyiDypne3jrROCbc0W7X100oMzzW8lbfx7x/HUBXRc/Y9UFP6bF/l5S/zVvckrOBF7e8lDqWCk0JiurkpAZFhaYAvQOLegadJUAzqKZvAhD4GyVZJL4Tpbq+XkaZORpmqmhAM3oSM+8jL+O14LZVeC1PRK6uU1TH3u7/47nDCvfnbOBTL0YNqUkpEdSsUh5HBSrGUUZ9hCtUgc4F6GwDdOZ2TEoMyhMSuvtdmIxuexkz/HZMSPwJFHd5PFdVz3ixFhW/sxegZpx4Jqi5/6NiQ3JlJr5R8mfJFUY6rYpN7H89suhKxfTx2n1PTxtS1JxTW9Enx1QG1YmDcpUyqlmliaCY5edpUJ7lGRQV6ujyAP31n9PobqxBJagHoDi76R4nvisqv2imJyVdpZ8M1F4F6Mq0JyLeJx8rYfnn8JvJt/Fk9FT0+qeI6Ni+PJaqVW291VvQdEJuqM3fz79KCBySsKm6PqPqySmfUfXEpMdRrENz9bIJoDO2eeMVeufLAEXuxfn9TIDmNjEozuc75V8p8/eg+HuljOqsUl09+roE4S9wJKNKJI6JqmM+l4x84+RtabQuOim6LVL0TUXzt7XiplHfCR3OerMq6qHSDg9Qsdh3dH0vQL3xKmXURcZY6uj2DIpZfsYbCaC8ZHoXoPwJvgB1UfkR/jObCXFQPX7qLFHXTRC5PxFUI5n77Mj7y/vIbs/PI5+bvzDWSCPoD7Fb6sn1Kf61c3DPaeODrUOrQ+2+MH/XJ9TmAaoXleoBKraM2syw6P5A5SplVMdYiiqdjSp9iCem7V66H13+HrFkwgz/mpseeA8TEkDnAHTeAReVHUGFWhMlaHz5JA+U//xHgspoNH0bbyWSRDOv68vO2M9lP6cPb2gGPRG9and77zbnbzo/rRbaP/rbgeZBz5R1+aiSTwLaASpQkTiqF5XqdaJy10eVzhFV6kW3x9LpdW8c9I7XAYpF/UO7UZ17AdrsolKANliniKphUP7uk0ZNBpVhHHmbhNLIztiPGzhcuW7aFJsafitanfzlhk+z5W69LqvwwKj/CLVm/6mk3RetFkNBugHrkUMAUAv2eYDqoQWAmv+hF13fS3Pe8aJKvfQgd3v+lOklN9253S0mpFwB6gUoL9lOpGXR09QByu/l21XKqDJ82QY19x8rnjPysW7aSGfSnyMzFqjD/uzbr37zK39J88gbiluy1wZbMw5X9nuorJtPXXmcVbDNHoytHlSrB7O/jTobqLPeRLfHOMqfMvEMz+PnbFTz3L2Z6PKZVHgIoJEzcYD8vVGGZFCJqtHkwSeDpNqvY96W+CZwZfMSif//1IuRXzfwn7qrw/37trymkVOCLUPuLG7J/GOw1dcWavMSfyQokPkbIhhzuXoLsBxaiGXRPCzg5/DvlDDb34Fl071vu+mhXYDenY0KzaF5+3MorwWg/eeJD5rlHzxIVPn3TjaqxjFjA8nrZgXLy3ro4H3mMJJOm+g0+lPs1nXAHKQO7/Nruc9c5gnum3B2cfPQ/yluyajAauBJnAC8gfF1b1GLtzuIiUz+dgDAQF4E4AffxRnSB1k0e9comrt7LM3feyI9cuBEWnhgAi3ruxBr0WFqLZoImowqv2NqYmlIud8eh+V97Mt+vHE+epzOphdjt6ywWltz1CH9Y7XcXHIXfThibPG+QWcVtmZeFDzov7xof9a385oyb8rblfXTBTvd/zVrx8kL5719Rd+ipouxIphEC/adQXnNp1N+8xnU0HMpQE+Ig/K3nBlU/vWI7P664jSWxuZ/7cHXeSv+zYe6Lu8nhw+5zy9OKzfSNHo+dkuBZVmZ6uX/87bCt352e/6HV1v5+y6ihXvPA+gkKmg+h5Z2XY7KGYGlU2KF8l+O2Kgakm9nvHoVvt2+zPfRbwhvM7HfT+tx8rAl9o39L0R/9nP1co6PtmDHNbOLmr8OyKmUf+A8ZDIt6fgmLbXGABPrSQE6CAj2H4zJv3Hi2FASUULq684wrJ/4z9kfp/PoWevbm18K/+T4/JfEBbsuCwaPXEiFBycDdgrVtF+Fxf3J8S4v0UxI+bei4v9J4bqE5MjLDCgv82MYOINWYpLbjLHyaevKt/4QvfGXjdtzP5+Z/O/Rgu98y5/fdOHSkp5pWBVMpcq2b9JKi5dOmIHFXzTbiKmi8SSwvM6PXYruvY5GYQafRE/Frtz5nHXzzK09P5qgfuzx3aoO3zSkuHn6porei6kKoGti0ySowmK4RFQNKKtXdndG5P+GtglrysfpIvqddf2fno/+9M5t1q9Hqx/1xWm1+24cGWq+4rmGyHepMXYJADMFlq5QHktl9+dhgLH9AnAVlliP0VjaAMRN1tf6f2tdu/N56wdlr1q3XbOdfvn5rys/z1bZ/ONTl7b96PXNdDWwfNQAQJlByGDgDSf+T5GbcYq4habSRuui6JPWle89Y9285YXYLfkvRn5xbTuVO792+EVvq5sfnrwp8m/bUG1tm6xLDj0eu6x5s3XlB09Z33plS+z6p/7PumnJc/ST2S9bd/x4B+X/69u04LP5VOh4ao1065AXrBnjXqLcMdvba044aO0YzItvnBp61F2+bMdHc7n+H36TyEKWE2vgAAAAAElFTkSuQmCC;fontSize=15;fontStyle=1" parent="1" vertex="1">
          <mxGeometry x="1390" y="546" width="84" height="77" as="geometry" />
        </mxCell>
        <mxCell id="QJePiBiGjla0rxZGbsFe-17" value="Heuron SCS" style="sketch=0;outlineConnect=0;fontColor=#21a7c3;gradientColor=none;fillColor=#21A7C3;strokeColor=none;dashed=0;verticalLabelPosition=bottom;verticalAlign=top;align=center;html=1;fontSize=15;fontStyle=1;aspect=fixed;pointerEvents=1;shape=mxgraph.aws4.servers;fontFamily=Helvetica;spacing=2;" parent="1" vertex="1">
          <mxGeometry x="1220" y="1160" width="100" height="100" as="geometry" />
        </mxCell>
        <mxCell id="QJePiBiGjla0rxZGbsFe-20" value="Heuron Message Server" style="sketch=0;outlineConnect=0;fontColor=#21a7c3;gradientColor=none;fillColor=#21A7C3;strokeColor=none;dashed=0;verticalLabelPosition=bottom;verticalAlign=top;align=center;html=1;fontSize=15;fontStyle=1;aspect=fixed;pointerEvents=1;shape=mxgraph.aws4.servers;fontFamily=Helvetica;spacing=2;" parent="1" vertex="1">
          <mxGeometry x="1090" y="830" width="100" height="100" as="geometry" />
        </mxCell>
        <mxCell id="QJePiBiGjla0rxZGbsFe-23" value="PUBLIC&lt;br&gt;(User)" style="sketch=0;outlineConnect=0;fontColor=#82bded;gradientColor=none;fillColor=#82BDED;strokeColor=none;dashed=0;verticalLabelPosition=bottom;verticalAlign=top;align=center;html=1;fontSize=12;fontStyle=1;aspect=fixed;pointerEvents=1;shape=mxgraph.aws4.corporate_data_center;" parent="1" vertex="1">
          <mxGeometry x="800" y="220" width="67.95" height="100" as="geometry" />
        </mxCell>
        <mxCell id="QJePiBiGjla0rxZGbsFe-27" value="User" style="sketch=0;outlineConnect=0;fontColor=#21a7c3;gradientColor=none;fillColor=#21A7C3;strokeColor=none;dashed=0;verticalLabelPosition=bottom;verticalAlign=top;align=center;html=1;fontSize=15;fontStyle=1;aspect=fixed;pointerEvents=1;shape=mxgraph.aws4.servers;fontFamily=Helvetica;spacing=2;" parent="1" vertex="1">
          <mxGeometry x="390" y="980" width="100" height="100" as="geometry" />
        </mxCell>
        <mxCell id="QJePiBiGjla0rxZGbsFe-28" value="Admin" style="sketch=0;outlineConnect=0;fontColor=#21a7c3;gradientColor=none;fillColor=#21A7C3;strokeColor=none;dashed=0;verticalLabelPosition=bottom;verticalAlign=top;align=center;html=1;fontSize=15;fontStyle=1;aspect=fixed;pointerEvents=1;shape=mxgraph.aws4.servers;fontFamily=Helvetica;spacing=2;" parent="1" vertex="1">
          <mxGeometry x="390" y="1150" width="100" height="100" as="geometry" />
        </mxCell>
        <mxCell id="QJePiBiGjla0rxZGbsFe-29" value="Helper" style="sketch=0;outlineConnect=0;fontColor=#21a7c3;gradientColor=none;fillColor=#21A7C3;strokeColor=none;dashed=0;verticalLabelPosition=bottom;verticalAlign=top;align=center;html=1;fontSize=15;fontStyle=1;aspect=fixed;pointerEvents=1;shape=mxgraph.aws4.servers;fontFamily=Helvetica;spacing=2;" parent="1" vertex="1">
          <mxGeometry x="560" y="980" width="100" height="100" as="geometry" />
        </mxCell>
        <mxCell id="cnsKx6EbPLkOXCmf0Z0u-1" value="" style="shape=image;verticalLabelPosition=bottom;labelBackgroundColor=default;verticalAlign=top;aspect=fixed;imageAspect=0;image=data:image/png,iVBORw0KGgoAAAANSUhEUgAAAOMAAADsCAYAAACG2BGZAAAAAXNSR0IArs4c6QAAAARnQU1BAACxjwv8YQUAAAAJcEhZcwAAFxEAABcRAcom8z8AACFZSURBVHhe7Z0L2C1VWcffiIoMBOlAiKXHEDkKxFEOh4vcQhSOipqkKIgKUQeQDEFRgSRPIuAFLFIoD4gQSFy9kFIWEQhyArS4KYIcORZxQLkXBLin5/ex5nvme1l71pq998ys2fP+nuf/ZJxv9l57ZtbMWu9VxDAMwzAMwzAMwzAMwzAMwzAMwzAMwzAMwzAMwzAMwzAMwzAMwzAMwzA6y5oisoGIvFRENhORTUTkRSLyWyKysYg8T0R+QR9kGEY8zxGRdUTkN0RkFxE5QUTOcjpXRC4Ska+JyD+KyI0i8mMRuVtEfiQit4vIbSJys4isEJFviMjFIvK3hc84U0T2EZEXuO/h+35ZD8Iw+gZvrp1FZA8ReZOIXCgi/yUi94jIahH5HxHJatDPReR+9z1837+LyGFuHGg9PVDDmDZ+0b3xPioifyUiX/FMlBT0bTe+vxCR7d24DaPzbC4iO4rIZ0TkDhH5T8/Nn7Iedkvg80RkNxFZqH+gYaQMe7ADROQ0EXnAc4N3Wf/r9p5HiMiv6x9uGCmwrogsFpEviMgPPDfxNOouEfmyiOwqIhvqE2IYTcPb4U9E5CrPzdonYQQ6WkTm6xNkGHWDb++kFt6CWEIfcZbQH4rI94eIfd59IvKE5zPqFK6Wz4nIAn3CDGPSvEpEPl/zTf60m+QYTU52WiYi7xWRdzh3CE7+tfTgCuBD3FJE3igiS0XkKOez5LO+5CbrwPPdk9JTIrJcRF6jB2YY4/IS5zB/0HPjjaOfuL3Xt0TkPW7/xd6TSJo6ebGIbOsCC/YWkcvcOAgg0GMcRxh8LhCRbfQADKMqLEd5ozzpudFG1b+KyOlur/lcEfmlRELXGAdv2/3d+P7eM/ZRxZvyr21SGqPwqyLyMbcH0jdWVfE2vUlE3i4ie7olZBfA2f9aEXmriFztonb0b6sqPgOfK3G1hhGEfc6Vnhupqv7FRbGwxC3b33UB3pp59NBXJ7Df/G8ReZeIrKG/yDCAfRqTBwOKvnliRcTKXzrDSdcnYBm7O6MQe159Dqro6y5KyTBm4On8ThFZ6blZYnWDiHzcZUP0CYLKsfKOs5IgSukYEfkV/eFGv8Bpf77nBokVe6kDLdNhZn/5Fpd5gi9Un6cYYTDaSn+w0Q/YG5ITqG+KGPEm3E9Efk1/aM8h6ZnzSr6lPmcxIlABg5HRE3AjHCsij3tuhpCIemFZtrb+UONZkMSMG0efw5B4s35SRNbXH2hMF1g2L/HcACH9VESOs4DoyuDGIZiB9DF9TkP6nohsqj/QmA5IlL3Tc9FDYk9pzurxwLCF01+f25AI2yMf1JgiCPuqmlvIxD3YfGETZScR+a7nXJfpIRH5gP4go5tQX6Zq9AjFnyxKpB7Yb39khBBDSoEYHYU3Gr6/Khf9ZyLybv1BRi3s5Qxi+hqUiZhZW6l0DEzsxEDqi1kmwte21h9k1ApRT6xC9LUo0xcTCaw3IuDJSd6evohlOrFDAdzTBtfryIqlKf/G3pDpQzGoUz0Xb5i4Af5If4jRCktcTqW+RsPEG9UKMCcKS1Oy8PVFGyYK+JJYa6QD7Qr+w3OthulsW7KmCUnA+mINE4V6bX+YJuwjv+O5ZsNE+wIexEYivK1CXRoicGgMY6TLPBH5pufaDRN7SCMBKBKFY1hfIJ9oGkOirJE+PDCrhC6ShmW0CJXSiPTXF8Ynii5ZgHe3oEYQ1ez0tfSJOjvkpRotQO7bvZ6L4hMZ5Za82k2wmMYa5ngwWxxxw9BXMDY9hzdi132IWAwRhorfFJEdROR1LtSPVCWKXb3a1Uols4Rk32myMvIgpQ6rvrY+3eIaxxoNEWs5xQjQpVo0LMt4sjPZyJuk5iiB1YSNobyTFXtk8jH/z9XsQY+5GNxVhb/HTUCDVUrvU5OVWqkb6S/tCCRyx5aP5O+m6WGULMSO6pPvE09IKpqlDk/xD7mE2ti3/TiibCTLPgweL9eDSZznu74e+jf5xMPMqBGcwjjr9YnXolYpb4JUoTw/NWP+uYYq3lVEyURubtoHsAdn+Z86PLxu9fwWLVYOVOkzaoB9HzevPula1PSkJ0WKUJaQJXbVlK6m9A8i8mFXST1lqNgQ8xAjOdnKd9QAN4k+2T6lmIhKVyZCt+gepceboqiHynhfpn9IQvyhZ9w+ERBgrdAnCFbCGDfGpYlF89NElTYB5EnqsXZBrDKwYlK0OEVIONZj9oncSWMCEDETUySXvWRKBYxwQFcJek5ZdJMiBvS39Y9sGd54MWUh2WPacnUCYBXTJ1eL+jbUuUmBjV2Jfz3GcYUbA3cFSdAEMdDzgpXAxU6Y8wmAp3YPk0cfPwmRckbuJ77OVMDwFLPy+LQ+0KgGT+KYE80NkgIUXLrNM74qwoe42uXrkWvJEuv1zvdIX0U6ZPnAr4afknO2nYi8wR3LZ1CZjVzBqkW5honuyClZKlmF6DFqPZrQA7tzEG0SE5d4nbsJ24SJwBucxjd6fDEijAsHP4WasBTW8XuIyyU96X2u/GTVKm1aBBqQyJ1CEAF2AlYJeoxatGNIyabQGXjLxKRFEQbWJkT4UChJjyskjCMU6sUquFB/aANQ/Q5fJ2OnSLMeX6wIIiBzpm14iMV0xaIZrFGRmGiU41sOeyLN5xuecYXE3o540lSySGgAdGjFpN6i2EqkEPESY1/g4WGV4StAyBspMfpEFvWDlhvPcAPHWHmLohPyAQnnVLIfJWACI5Eee4zob9kmBJTHxK/Swt2IAN8cXZ70CdR6sz6wQTCTf8szpjIRD8qerQsQFkc2CMto/TtC+kLLDxu2N6GmRuzRsXobAWICwXlyM2nbgCUOy0w9pmHiwrME7CKEIP6xyxTRv6tMGN7aXLXE9PUgLNEogSdqKCofK15bQeDcYDFO5lwrRGSR/pAOwhv9PM/vKxN+0LayZuZHVIAgHc32jiXQKDPU+Rb/WxvwlqgyEcmlnLaLzX6Xfa/+rcPECqatniXkcOrxaB2lDzKegc33P3lOWFHsBdpwA2DYIOpFj2eYeGAMc853nS0qhvkRHdTGHpKHJ5ZTPZ6iCNDAEGcodnNLUH3CiiI+smlXBhe1StnAMzpWXWAUMH4wyfRvH6ZzWsqcoG2AHosWLiajAFERoWgb4i2pBtckPNF5AOixDBM9PvpSUJdCUXT50udgmHB7NB39gh84lO2Db9UowN4qFEp2oT6oAU7yjGOYKJvR9Fs7Bcgf1edimI7QBzcAKWx6HEURs7qHPqjPfNCFh+kTVRSOWkryLxaRV7poffYvJO6SOkUQNVa/GNHWGksf+wVcJFhJWVoWhYsltrcjk7aNZVgqHBJx/RCB6lQ7aBJyYUOWVbJsDLfciQl9I06VqJxcTBREahHi32P1iMu6x7xNwDTfz76wqNg0JLuQz7A0ImoK3dhC8MNZnnEUhYWYB3TvwXATe+Onpi93pIhTU8S4ExCTo0lIPwutcnCr9Z7Y2japib4dVqV8LhivqNOqz5UWb1AKMDcFqy9Kd+pxFIUPuffgCtAnJnXhzF5P/xBjBqoA3Ow5Z1pUJGgyIOAwzxiKIvMk9ap4tUPsoz4xKYsbLYWE2pTBqBZT35ZSGE25O14RYbEnubvXsJ4PnaRUhNGHEvlGmH0950+LfRxW8SbA7RRqMUd5yt5DtnuVmMc2hD/KNvnx8Mbj5tbnUYs9ZlOQfFwW5UWAAFXrew8ngfos71fCB4njlugWCtKSPYDxhH3b9W5jTtW0lW5pRLVu3rRUMsvdITE+sDKxuf9dPWAjCO6CUPoVDzks6k2Ab5nWD3oMRVnRqgrwxMWKSckKwp0wAnCSiZfEeEAvBgIA6GdBXRQCAtiYjyNzX4zOeyLcCrTtayKYnMCMUIqe+Y2NqQW3wrWem14LA0sThAyGt+sDDGOaoH6rvum1cHE1AUti/d1FsdWpo1SmYSQBb8dQBzGMJ2wv6oZ4ZGrt6u/PhYGH0D7DmFqoQB7aOxKN1QQUzdLfXRQNdQxjasHodpXnxi+KQl9NFBoL9UIxf6Mx9WA8CbmZttEH1QD7xrJAEzo6p9yb8lkQ0UBYGJW4cCdMi6x1WH3giiqbBIj+HXWDGwW/tP7uopJPOKbDEQ74r4jIFa7gDw53qntPgzBrk29HO20iQ+hu1MSyqS/gI6b8hr7xiyLHtG54kYQm42v0QamAlYsIGKIl9KCnXWQXEK5Xd5GpF7pq2NSEJdBgWgm5OYiQaSIiJ9S16vf1ASlAaUTeGHqwfRM1eCZZJRuDBkshKqex0qDnIaUosTjy1KahDiUfKf8xTRFAbG1CDXY+ow+qATpw6e8tihZ9SZVSIRUm9Drvk2iqMok9Jc1PWQ7HtLxDP3Jv52mZlGd6fmNRlOevG7KF9PcWdXdKtW8xzNDtVg+y76LQ8qhl66nBGqrHUiYc500XdKqDg1zdIv37cmHNfLk+aMLs6PneokiXm+RKaCxYKugBmp4RE7JqljqVAS73fFZV8ZZsKgewLnjjMOH0byuq7ia423u+syjGl8RkJNuhj8aaKqIlXKxRB4tsqHVBFbFi6bKRB9dCaNVV92Tk/K32fG8u3oxJbAtCEQq5yFXDtYHFcRrEb6G2p/6dw4TxJSb1B9+ZPnZc8ZZNysBQAVwLhJzp31TUcfqgCcPbuaxtAzVx8Du3zt95BlcUr3CKCvN0oRr486dAWPn4LSxf6HOvf/MwUf6/rKQ/7oqQo3tUsffqKvjx9O8pCuty2XmdBJ/1fG8uktL31gc0DU8tTO16cLmIaj9WHzSFHB4o0VDUp/TBDt6aVfsaVhGJsl0NStjd83uK+knkqmMcTvR8b1GtN1TFUljWPpq1PmFNfYAs9ZgCy5T48IVPEd8YU2V7HCXpnI6A8hb6txRFTaS6JyP9UfT3FsWqp1UoV8H+SQ8sFyFwfYKlSpkZPhdPcm1UYaLov5u0PtHRhjtk9tNmQf+eXJzPut/6ocnYevYGfRBoIqkHlosCUH2DQlmhbANE0moxSzxUGnASYhVT901bB+zTy5qZYpeou/9FqMtY65ORk1TWmbaPkxFDApXp9LnwiX4TOaGS8pMQVj+uWdfAmlnm7qFzVN2Z/6E9Y+uTcZ4rgagHlquPkxF4+5Cpos+HFntEojug7KE2KRHPSlW8LkLjIP17chEwXneRquQnIzddWTWvvk5GwLgV87ajxRyB4MSf6n+btNh31b2cq4vPe35PLh4ye+oDJgzWUv29RbU+GVk+XOkZWC72k111Nk8C0nuwnurzonWUK36s//ukhaGjamheKpQFQ/xcRN6uD5gwGL/09xbV+mRkf0Solx5YLtKpkolmbwkapOjzonWDS6SNMfyMo/MbcAHUxec8vycXGS2v0wdMmOTfjEAunR5YLtwefW+HRsY61QD0uSmK5ePBDUzGLkfhkK+pf0+uh0RkkT5gwnRiMpZF4OD0p/Zk3+FGecxzfnIRvUN/jms8/zYpYXGkZ30XYU9dtgLjt+HzrpPkDThAVrseWC5M6SRm9h2W86HOWVg593f7H/1vkxD1P7tKyIWGn7FuK3HyfkYoMzkjNr59hzSzkCGHcDjSrG71/Nu44qFIgbCuQk5mWUcoDFN1h10mH4EDF3sGVhRpRvu5E7rFCCJbfZIiK7wJMbn4vyxRy5ZYiNZ0+WTZLnDjVRVvWs5/l9nZ87uKYtVBW4A6CU3G1mNT4QORhgduCvxBVUXw9SjiTTSK2NtVFcnVPoXehrnI1ijeTFRFwyih/24UcX26TihrY1UDVuLQMpU2561DrRY20HpwpjjxkKKqm4Z+E+OcVx5IR+gP7Shk8uvfVxTlRerOZ2Sy6e/NhQFuH31AW/y5Z4CmOBFOOKxkwysD1uphIhCj7oiUpiDLpGwioOP1QROGVcvXPd+bK6k9OTdTnWb5aRVP1FD9FiKYXisiX3XLsWHWVuqwXO2e0KxWpgUmApXD9e8tivNTJxjgylqcJ1MDJ2dxoGiPaa6YiIfpkxiAAArCvnBAE6uJqBxAnVRiTruYqxiCvSBNSfX5KwofbZ10pjpcEQZNaJcerGmuMEyR92iEwZhVVsCZ6KW6MzZe5fneopKqm1qEbAXiLH/qGbRJ5DJnHTTiCOWGUnG87hVBaDKyhE1qmarhaYV/ixQrfI0I/1nfxO/Gj4ifilL9RjxrR+SFNtFr402e7y3qa13JTiJrg54TxKj2Ufz2uqNDphUMM8MMVghfbt2rDN66oXKk++qDDGPaWOa58Ytqoj8jbzwa2+jvLirZ/oyGMQmI073Xc+MXRWOguiEFjqAC/d1F+Upvtg5REF0QT7th4uSXiWXLMBmTgzq0oTqydecwAllHZaGJGCqTai7ETfx+116bHMaURIIzyxl6Y1B5gDFSDp6SINSoudml5yCqbn/XCRcN0TH/JiIrXGlFGncS3IBwsF/latgQ8YKhgTZsVDEjMJwyGiQV06OBBGz6NWJJJZKDDT9OfKJrKNFIsD2tyElHo/EmexSyYRBxqwQh06uDzADeBuiLInKGiCx36VFYHelVSLuB3AdJjwrKVdAPBQv3Ka5MPb0pKAlSd3D1qDCusnIuiOvVRKW7UCtzrk8yxhveCNwUepCm9MVkTzFahz0Yvlg93qI+qg+qCR50+ruLohxIMhB+pQdo6o6o0ZMaZQnrqKmlIVbwUJhnUucvlFxsSlss2VOCWN1QSh5L/CZgKa+/u6hiHmoSsJfRgzR1R0zGVPY8xKGGinchImKa4ADPdxeFTSIpMCroQZq6IwxUqfDWgJMfYSRrIg4UyznGOf39RfEiSsqKjqVPD9LUDXHjp9ImjiZKIX8e4yXpugmolh/qTJ2cf7GsnqUpbeEeSQXcMnp8WriHmoIQt7L2fsQdL9AHtY1Nxm4KHyqt0FPg9yIazRIA0GTZz9B9HWoJ3wpmTe2eCGqou85oLDSNJR9Qj1GLoIamoLIf5R/1GIr6U31QChAxogdqSlcs9cg5TQGMJIxHj1GLqKmN9cE1QuUEPYaiWKJS9jM5CLnSgzWlp4dF5JiEQuBY4pEYrMfpE5XWm4JxlbU5RFhZk2TTMUsKmuoVtVsJ2WpyvxUDcbJ6rD4RjsYbtCkWisiTnnEUVXf7ubHYyQVGhzbhpnrFTZRXieN6fLDh5V0s7/WM3ScKPc3XB9dMaKVH0TXcMMlDKBMnGh1ak4iS1ydI62TPcTHKx15VZF7oMfjEw4oK37Rm0989qvJz/S4RWSIiv6MvSmLs7cLI9LnRoggVxaiahNC2kOGGLA7DQRkLyi3ok1QUS6AmeWHERUSUZ8Sf1ld4aMSsnohNXaoPrhkiaVhJ6LEUxQPiLfrAPsP+4UueE1UU5fuafkNQuxMrmx6LT8RfUh+nTxzrHkb6XPhEPic9GZuEiBuWxXosRZH/mpxvsW1oGR2KYTyt4Y0/vC1Q47MokmfrbvCZApQwJLlZ//5h+raIzNMf0gC8tfVYtA7UBxnPPMVCeWaUSsCh3DQ4g/VYhgn/GWUApxWc55d7fvcwUXWBJX/TsErhu/V4iqJiBFskwwOdm/QJ0+KJ3DQsr0LL6KKIfyRrnQJM0wQZGGX9KbR4MLWRG8hekeruejxa+GiNIbB2v8lz0orC0d1E0SINEyvWoZ2LSJSt9Qd1EMLs8Gvq31cmujXTWLYNeCuGqtDhLsKfbpQQ83ak0FPTe0cg0qXqTUnwBMvc5+oP6wCsCAj4pvCX/l1lurHlOFkqkusxaTVRErLzsNH/nufkab1ZH9gQPAQoxBtrRcxFJbp36A9LGCp/l/UvHCZWNi/SH9YgvI1DFlRWV23sYztJjBWMLIUmssOHgZWVi6rHFRJRNDxI6DmRGrz5aeZKPZpQ+JhPVIhoOzooVPgKfSy1bP6UoW5KyLKK2u5tT3GjmMAALRzg5B5S1LeJOqEhsGRTHYAasLFunKIowXiw/tAWoCmTHpsWFtQUznmnwO8Yqj5Nw81t9YENw7KIgsZ6bLFiWUeN2h0bftPTvIggCuI2WULrccWKh1EKrhway9IFWo9P6xB9oBFHTMxqCqkvvMmptUmUkB5frHi74Argbc/NvaX+kgmwhVsiH+6MLKEQxJBw9zQd9O0DKzzlRvT4tKgon+L2oBNw88Q0aP2QPrAleLvFLK9jhGme/Q/pRkeIyK7OZI+LBWHpLIZxUZqR/5b/O85sltFHuzcvCeMhw0asVrqSh6lAoLoeoxZbgzfoA41qxJipeSNtow9sCZ68vCVH2UuWiRxGJhNOd0SPEcLMyC6htgvlDvlv+b/ztzEB3FXEeaZURptuCw2pT+wD9Vi1COZvwx02VeCfi9nTkMmdki+PEg40rAlV0u6K8O3urH9ky9BThIZEeqxaPBg30gcbo4HPS59gn85vITMgxPbuRi5rQZaqCOujAxd72BQzGz7sGbMW1mF6xxgTJNTxNhf7qxThrUJLt668KdlnprzHYmyhrlaIVn3mU5ww7MViInNwxLft7iiD5StGFX5LWUHdNkQvS5K467DkThLifWMMe/Tw7ENKWyswyWIuAv3am2gvNi6UoOCNj8ld/4amxH6KCfgHenCJQklKeono36FFbuzr9cHGZCEZVJ94n7CwtZH7OAobuAcNS2yCAHiix1YYqCI+k8/Gn0n6EPvZNlKcRgX3DXYB/bt8ortzKp24phZOMBH3+uT7xLKriwHB+AmZnLQG562Fcx1DCm98/RuHCfcGx+AMp5gX8ZjbdTzHMrabtu0TG4RYSkoX6ovg06UJWlhHgVA58u8wBFGbp0wECLAqaDK8rm4+6bm2PrGNaSuPsre8xMWm6ovhE/GX0zAh+8qnPdfUJ9wY5F8aLfBOzwUZJiIwurxE6ysnea7lMKWQOdJrCHrWF2WY6EqbUpSOUU6VCnR/pg822oHiT/riDBPRMKn0MDSGE9u3A2HgSjFCqLdgLdQXaZiu6phJv0+QZ1mlzhA+WlxDRmJ8ynOxhgl/GyUmjHTAKFel7s73ReSl+kOMdIi1vCGsseT8Ge2Dy4byjvoaDRM5lTYROwBObn3xhukx1xzFaA+yKn7muTbDRH8Mm4gd4kTPRSwTJT6sUFGzUI2AsLUqZS8JF7T9fgf5hOdiloneDBZc3AyvEJHveK5BmWgs9GL9QUZ3wO1R5clLjhwVwLHqGZOH2qzUxa3app6qCYRBGh2HTI8HPBe4TN90BaaMycH5JIhbn+sykQpFYIcxRZCxQHlCfbHLRKkMnsht9BacJqhqR0J11bQwqprTSt2YQig9T0U1fdFDYi9J9W+jOvQXIZVNn9OQ8CG21U/FaIjnuQ7IoWrlPmFAoDgW+x5jOOQS4r+ltbo+hzGiZwclGI2eQOHbUWqbsodh30P7AePZUD2AyRRqCe8T+3pqzho9ZIELHNc3RYyo8ka3JhJ5+255JUibSYivdtSSlHQVS7mQmNEAVJmmPUCVCJCiqPBG1QH2lH0LWKbHCEW1eCiN0r0KUSmdLH6MPIYxA63JKdGhb5YqovwigQaUv5/WYkjsB0lBo6DVFZ5zUEXswXfRX2AYwHKLNxzV0/SNU0W8ZfFTEnO5UH9JR8GggnWTZf39nt9cRRTLohp435f3RgRUlKPcwyjde7UokESFAZbC1PzsSi0eHkzruX6GVGW7zfPbqgqjDueCQs6GUQniJ6nTyb5G31ijiM5QP3YlGKnillqhZZqnMi4c7QRIxBb8ihFlI3e3EorGuOAzi2ncWlVYHpeLyGfdm5hkZ27Wum/Y/DvozHSk+376QI5qCS0T1b/31QMwjHHA6spbg71gTMOVUYSf7YcuyZY2eKQXYa3E5I/oQcmE5Y1KI1ky42mfzX6ODsL0lSDP72XuLYdRKj8WsVRmcrAn5ntG8bPG6nr3hmWpaxi1saer01LXpCwT/k3cKbQAv8ft5ZhYLH9ZVpINQQzoqK6GccWy3t6ERuPwBqIQFh2D9U3ZJ93lom7yZbZhtAZl9N/nSgZSxkPfrNMoLKMXuvQmrMSGkRz0NmSvRBb7as9N3GXhXySbgr2nvQWNToExhf6LZImwlNM3dxfEBKTrF8txjEYYsgyj01BECRcJTnQK764aofpA3aLrM+Mif5NyJa82B70x7RDdQiQOrct44xDhcqbLXNATpE5hhWWfy3dTTh9XCOMiANwweg0B2EtE5I0F8YbiTcVyUYtQO+JgEf87l/47/JZ04dq/8Ll8D75JwzAqQEA13bNyUSWNmqNMXiyZ/F/St6jVQyoS1Qz4m/zvn6M/0DAMwzAMwzAMwzAMwzAMwzAMwzAMwzAMwzAMwzAMwzAMwxiRwWCw5WAweHcLouarYRg5g8FgWdYCg8HgZD0Ww+g1g8HgI3qiNMFgMPi4Hoth9BrfZHzqqaey++67LzvvvPOy/fbbLzvkkEOyiy66KLv33nuzxx9/fPbv+P/vvvvubNWqVUHxd/x9jk1Gw1DoyXjllVdmu+66a7bBBhtka6yxxmwJDP73vHnzss033zy7/PLLswcffDBbsmRJtv7660drjz32sMloGMMoTsZTTjlF16CZnYjF/3/x4sXZHXfckS1cuPBZf1umBQsW2GQ0jGHkk/GKK67I1lxzzTmTZ4cddshOO+207LrrrsuWLVs2MwnzycjS8/DDD595i+babLPNZo9lAm+99dZz/v3QQw+1yWgYw2AyDgaDbK+99pozEY877rjZiZPz9NNPZ8ccc0y22267Zffff7/+5+ycc86ZPX6ttdbKbrnlFv0ns9hkNAwFk/Hhhx+eMxEXLVqUPfnkk3r+zHLPPffMGHk0Z5xxxpzJeMMNN+g/mcUmo2EomIx33nnnnMl46qmn6rkTxfLly+dMxuuvv17/ySw2GQ1DwWS85ppr5kzGSy+9VM+dKGwyGsYYMBmvvfbaOZPxkksu0XMnCpuMhjEGTMaVK1fOmYwnnHCCnjtR2GQ0jDFgMuLAL07GTTfdNHvkkUf0/JkFV8ejjz6q/7NNRsMYByYjltF99tlnzoQ86KCDstWrV8+ZQFhR+bttt932Wf8GNhkNYwxypz9vu3XXXXfOhCQk7sgjj8zOOuusbOnSpdk666wz89+32mqr7IEHHtDzyyajYYxDMRzusssuyzbccMM5E9KnXXbZZSY2VXP66afP+bsVK1boP5nFJqNhKHSg+O233z7zFiTkjbdbPrHWXnvtbKeddsoOPPDA7NZbb2UyFQ+b4YILLsjmz5+fbbLJJjMB5TfddJP+k1lsMhqGQk/GnIceemgmXvXss8/Ozj333Ozqq6+ekz7lA6MPk5kggrvuuit74okn9J/MYpPRMBTDJmPd2GQ0DIVNRsNIBJuMhpEINhkNIxEGg8HReqI0wWAwOF6PxTB6zWAwOFZPlCYYDAYn6LEYRq/JsmyjwWCwqAW9QI/FMAzDMAzDMAzDMAzDMAzDMNLk/wG1yxZpOXTjGwAAAABJRU5ErkJggg==;" vertex="1" parent="1">
          <mxGeometry x="350" y="364" width="227" height="236" as="geometry" />
        </mxCell>
        <mxCell id="iisW6WEDvZExZYq2Vd61-1" value="Dicom" style="sketch=0;outlineConnect=0;fontColor=#232F3E;gradientColor=none;fillColor=light-dark(#023c6b, #bec8d4);strokeColor=none;dashed=0;verticalLabelPosition=bottom;verticalAlign=top;align=center;html=1;fontSize=15;fontStyle=1;aspect=fixed;pointerEvents=1;shape=mxgraph.aws4.documents3;spacing=2;" vertex="1" parent="1">
          <mxGeometry x="1038.22" y="546" width="72.34" height="99" as="geometry" />
        </mxCell>
        <mxCell id="iisW6WEDvZExZYq2Vd61-4" value="Notification" style="sketch=0;outlineConnect=0;fontColor=#232F3E;gradientColor=none;fillColor=light-dark(#023c6b, #bec8d4);strokeColor=none;dashed=0;verticalLabelPosition=bottom;verticalAlign=top;align=center;html=1;fontSize=15;fontStyle=1;aspect=fixed;pointerEvents=1;shape=mxgraph.aws4.documents3;spacing=2;" vertex="1" parent="1">
          <mxGeometry x="1204" y="546" width="72.34" height="99" as="geometry" />
        </mxCell>
      </root>
    </mxGraphModel>
  </diagram>
</mxfile>
